<svg xmlns="http://www.w3.org/2000/svg" viewBox="0 0 650 320" enable-background="new 0 0 650 320"><rect y=".001" fill="#A18E5C" width="49%" height="100%"/><path fill="#FAFAF6" d="M143.978 225.41h-67.996c-2.068 0-3.361-.775-3.361-2.586 0-.775.26-1.551.776-2.068l47.312-53c11.893-13.445 20.424-29.733 20.424-50.674 0-27.922-20.166-45.244-49.122-45.244-26.112 0-47.83 20.684-47.83 47.054 0 2.327 1.551 3.879 3.878 3.879h13.444c2.585 0 4.912-.776 4.912-3.879 0-14.219 9.565-25.854 26.111-25.854 16.029 0 26.112 10.083 26.112 24.819 0 14.996-5.171 25.596-13.703 35.42l-61.53 71.875c-1.034.773-1.034 1.81-1.034 2.584v14.479c0 1.812 1.034 2.845 2.845 2.845h98.762c1.81 0 3.102-1.033 3.102-2.845v-13.961c-.001-1.811-1.294-2.844-3.102-2.844zm78.065-154.606c-35.938 0-55.586 24.819-55.586 55.586v67.221c0 30.767 19.648 55.586 55.586 55.586 35.679 0 55.586-24.819 55.586-55.586v-67.221c0-30.767-19.907-55.586-55.586-55.586zm33.094 122.03c0 19.907-10.342 35.678-33.094 35.678-23.01 0-33.092-15.771-33.092-35.678v-65.669c0-19.907 10.082-35.678 33.092-35.678 22.752 0 33.094 15.771 33.094 35.678v65.669z"/><path fill="#A18E5C" d="M463.717 225.279h-27.147c-2.586 0-3.879-1.292-3.879-3.879v-141.936c0-2.844-1.291-4.137-3.877-4.137h-49.898c-2.326 0-3.619 2.844-3.619 4.137v9.566c0 2.585 1.293 4.137 3.877 4.395h27.664c2.586.259 3.879 1.293 3.879 3.878v124.615c0 2.068-1.293 3.36-3.879 3.36h-27.146c-2.844 0-4.137 1.293-4.137 3.878v11.376c0 2.845 1.291 4.138 4.137 4.138h84.025c2.844 0 4.135-1.293 4.135-4.138v-11.376c0-2.584-1.293-3.877-4.135-3.877zm102.629-64.892c-.775-.775-1.291-1.811-1.291-2.844 0-1.293.258-2.068 1.033-2.845 10.6-9.565 15.512-17.839 15.512-35.161 0-28.956-15.254-48.347-45.76-48.347-26.113 0-45.244 18.098-45.244 44.469 0 2.068 1.033 3.878 3.359 3.878h14.221c1.809 0 3.359-1.551 3.619-3.878.775-7.239 3.879-21.976 23.785-21.976 14.996 0 22.752 12.41 22.752 26.112 0 16.547-12.67 25.854-28.439 25.854h-4.912c-2.844 0-3.879 1.811-3.879 4.396v13.961c0 2.586 1.035 4.137 3.879 4.137h7.498c17.062 0 28.439 10.602 28.439 27.922 0 20.166-6.463 31.283-27.404 31.283-14.996 0-24.303-10.6-24.303-26.889 0-3.104-.52-4.396-3.877-4.396h-15.516c-2.584 0-3.619 1.553-3.619 3.879 0 32.834 16.029 48.863 47.057 48.863 31.283 0 51.449-16.029 51.449-51.189 0-14.995-3.881-25.596-18.359-37.229z"/></svg>