<svg xmlns="http://www.w3.org/2000/svg" width="650" height="320" viewBox="0 0 650 320"><path fill="#A18E5C" d="M0 0h320v320h-320z" enable-background="new"/><path fill="#FAFAF6" d="M146.845 226.039h-67.996c-2.068 0-3.361-.776-3.361-2.586 0-.775.259-1.551.776-2.068l47.312-53c11.893-13.445 20.424-29.733 20.424-50.674 0-27.922-20.166-45.244-49.122-45.244-26.112 0-47.83 20.684-47.83 47.054 0 2.327 1.551 3.879 3.878 3.879h13.444c2.585 0 4.912-.776 4.912-3.879 0-14.219 9.566-25.854 26.112-25.854 16.029 0 26.112 10.083 26.112 24.819 0 14.996-5.171 25.596-13.703 35.42l-61.53 71.874c-1.034.775-1.034 1.81-1.034 2.585v14.479c0 1.81 1.034 2.844 2.844 2.844h98.762c1.81 0 3.102-1.034 3.102-2.844v-13.961c0-1.811-1.293-2.844-3.102-2.844zm78.066-154.606c-35.937 0-55.586 24.82-55.586 55.586v67.22c0 30.767 19.649 55.586 55.586 55.586 35.678 0 55.585-24.819 55.585-55.586v-67.22c0-30.766-19.907-55.586-55.585-55.586zm33.092 122.03c0 19.907-10.341 35.678-33.093 35.678-23.01 0-33.093-15.771-33.093-35.678v-65.669c0-19.907 10.083-35.678 33.093-35.678 22.751 0 33.093 15.771 33.093 35.678v65.669z" enable-background="new"/><path fill="#A18E5C" d="M475.244 226.297h-27.146c-2.585 0-3.878-1.292-3.878-3.878v-141.938c0-2.844-1.292-4.137-3.878-4.137h-49.898c-2.326 0-3.619 2.844-3.619 4.137v9.566c0 2.585 1.293 4.137 3.879 4.395h27.663c2.585.259 3.878 1.293 3.878 3.878v124.616c0 2.068-1.293 3.36-3.878 3.36h-27.147c-2.845 0-4.137 1.293-4.137 3.878v11.376c0 2.844 1.292 4.137 4.137 4.137h84.024c2.844 0 4.137-1.293 4.137-4.137v-11.376c0-2.584-1.293-3.877-4.137-3.877zm135.466-43.693h-21.976c-2.327 0-3.62-1.293-3.62-3.878v-101.864c0-2.586-1.292-3.878-3.878-3.878h-13.443c-1.811 0-2.844.517-3.361 1.551l-65.152 109.879c-.517.775-.517 1.551-.517 2.068v10.858c0 2.585 1.292 3.878 4.136 3.878h56.879c2.585 0 4.137 1.293 4.137 3.878v36.454c0 2.844 1.292 4.137 3.878 4.137h13.443c2.586 0 3.878-1.293 3.878-4.137v-36.454c0-2.585 1.293-3.878 3.62-3.878h22.234c2.585 0 3.619-1.293 3.619-3.878v-10.858c.001-2.586-1.292-3.878-3.877-3.878zm-46.795-4.136c0 2.326-1.293 4.137-3.879 4.137h-31.8c-2.327 0-3.878-1.034-3.878-3.62 0-1.292.775-2.844 1.293-3.619l31.541-51.966c.518-.518 1.293-1.293 2.586-1.293 2.585 0 4.137 1.293 4.137 3.619v52.742z" enable-background="new"/></svg>