<svg xmlns="http://www.w3.org/2000/svg" viewBox="0 0 650 650"><path fill="#2B2B2B" d="M538.605 243.13s5.365-39.085-37.91-59.823c-48.254-26.588-145.741-82.716-145.741-82.716s-26.104-20.33-60.562-.494c-35.515 20.446-154.603 89.118-154.603 89.118s-28.558 14.771-28.558 52.684v168.884s-2.461 31.51 27.574 50.711c30.034 19.201 149.186 84.193 149.186 84.193s33.826 26.582 68.652 3.445l148.054-84.447s36.975-14.174 33.908-61v-160.555z"/><path fill="#d63737" d="M479.904 362.129c4.377-3.119 7.973-8.586 10.5-13.354l-.029-.095.26-.343c2.477-4.754 3.861-8.69 3.861-8.69l.023.392c2.738-11.932-3.777-26.147-13.756-28.87.227-10.751 2.289-24.475-20.367-28.59 1.143-31.336-17.623-38.198-24.487-41.172-6.867-2.973-13.044-6.176-13.044-6.176s-3.504-5.708-10.415-8.728v.053s-10.181-4.806-19.451 5.034c4.95-5.461 8.051-6.784 9.31-7.104-6.271-7.726-15.147-13.002-27.661-10.01 2.075 1.64 6.929 5.805 11.082 16.047.811 1.688 1.472 3.454 1.895 5.3-.604-1.927-1.241-3.688-1.895-5.3-6.653-13.797-24.541-22.157-24.541-22.157l.104-.36c-11.127-4.1-21.39-3.136-30.428 1.38-11.214-7.091-24.487-4.575-32.955.229-19.683-6.404-31.812 2.059-41.651 8.234-14.012-1.155-22.734 1.976-28.816 6.741.197-.082.246-.085.096.024-1.26.915-8.01 8.351-2.29 10.524 9.312 2.66 19.326-5.562 22.458-8.429.605-.615.998-.953.998-.953s-.359.368-.998.953c-3.256 3.312-12.634 14.676.197 24.902-28.834-23.567-41.65-15.102-41.65-15.102l.6-.709c-6.953 2.644-10.737 8.043-15.588 14.299-8.13 4.62-14.367 10.576-18.255 18.089 1.644-2.491 2.859-4.153 2.462-2.964-1.031 3.09-10.183 12.584-1.832 35.581-4.196-5.682-6.053-15.828-6.698-20.305-8.726 6.148-9.254 10.275-8.408 20.832-5.49 5.719-5.264 15.782-.688 24.017-3.432 20.128 5.493 29.965 10.525 32.021 1.832 5.947 7.782 17.842 29.065 15.324 1.601 3.658 16.477 11.895 35.013 4.809 20.597-8.24 12.357 6.172 12.357 6.172s4.941 13.537 28.226 11.854c6.558-9.908-18.219-26.729-14.953-24.592 3.167 2.072 13.001 12.146 24.835-4.928.535-.861 1.094-1.732 1.713-2.625-.575.943-1.145 1.807-1.713 2.625-12.674 20.418-3.209 32.957-3.209 32.957l-.32.031c3.597 5.271 11.578 14.354 25.208 17.213l-.8-.371s20.251 3.604 28.409-2.918c-1.885 4.562-11.838 6.129-15.414 6.506 8.587 12.736 21.598 17.773 33.298 16.199-3.404-6.668-7.051-28.902-4.926-18.676 2.315 11.154 13.475 26.771 13.475 26.771l-.041.025c10.654 11.941 27.828 15.766 39.543 9.91 21.065 10.84 58.276-5.295 66.792-39.924l-.311.041s4.807-20.596-.428-31.064c3.172 4.178 5.607 13.625 5.338 19.51 17.012-6.211 25.625-30.895 21.924-49.354-3.51 3.994-9.613 8.022-11.549 9.264zm-293.074-18.783c3.898-9.021.387-18.148-1.514-21.993-.361-.605-.711-1.227-1.034-1.896 0 0 .438.693 1.034 1.896 5.403 9.013 14.814 10.619 19.797 10.782 1.611-.088 2.781-.034 3.199-.092.524-.07-.842.17-3.199.092-4.793.265-13.524 1.797-18.283 11.211zm40.363 30.568s11.099-26.195-21.285-3.203c0 0 16.134-18.42 25.404-12.471 4.806 5.49-4.119 15.674-4.119 15.674zm-14.703-104.539s-4.551-.257-2.061-3.432c6.438-4.891 22.829 10.209 22.829 10.209-9.01-7.722-20.768-6.777-20.768-6.777zm22.828 60.949c10.298-3.203 12.356-14.073 12.356-14.073-1.259 8.81-.344 13.731 4.005 21.854-2.745-3.548-8.008-8.351-16.361-7.781zm28.996-47.691c-4.997 3.552-9.938 10.353-10.917 19.776 1.161-15.102-8.102-20.744-9.535-21.523l-.192-.1.192.1c8.704 4.602 12.65 6.179 20.452 1.747.828-.587 1.655-1.097 2.47-1.502-.874.571-1.682 1.056-2.47 1.502zm65.176-68.316c-5.609 11.44-8.125 14.757-8.012 22.424.115 7.665 5.608 15.901 10.3 18.99 1.831 1.717 3.206 4.119 3.206 4.119s-8.925-13.271-20.025-3.202c12.934-22.311-1.03-35.581-6.294-42.444-.001-.001 12.472 15.213 20.825.113zm-42.435 37.193c-.043-.458-.091-.908-.129-1.385-.002 0 .069.516.129 1.385 1.022 10.453 3.469 16.544 11.491 21.039 1.066.484 1.909.943 2.453 1.258-.877-.405-1.68-.828-2.453-1.258-4.306-1.957-12.338-4.356-19.86.229 8.662-5.366 8.646-17.227 8.369-21.268zm-4.71 54.33c-9.383 12.472-3.548 32.949-3.548 32.949s-4.118-5.146-2.745-19.103c1.374-13.958-3.892-17.962-3.892-17.962s2.861 2.288 15.449-4.004c12.587-6.292 17.162-1.717 17.162-1.717s-13.042-2.631-22.426 9.837zm8.926 54.344c15.904-6.635 15.679-32.604 15.679-32.604s1.829-6.637 4.919-.227c6.065 23.11-20.598 32.831-20.598 32.831zm25.173 22.996c-4.464 5.949-7.209 3.314-7.209 3.314s-3.434-1.604 1.145-5.832c25.29-18.762 27.691-38.213 27.691-38.213-.569 16.362-17.162 34.781-21.627 40.731zm25.363 26.619c.139.627.264 1.342.36 2.186-.151-.762-.265-1.485-.36-2.186-1.592-7.107-5.646-1.246-5.646-1.246l8.41-16.131c-1.278 3.896-4.022 8.326-2.764 17.377zm6.635-108.337c-13.497 9.301-10.915 24.036-10.599 31.267-3.027-17.653-5.017-22.72-17.529-31.129-2.468-1.325-3.871-2.509-3.871-2.509 1.396.877 2.679 1.708 3.871 2.509 5.387 2.89 15.863 6.438 28.128-.138 1.026-.708 2.141-1.388 3.359-2.028-1.132.767-2.252 1.436-3.359 2.028zm10.801-34.52c7.093-12.471-5.38-24.254-6.866-25.971-1.487-1.716-.458-3.546-.458-3.546s2.289-1.26 2.974.915c14.646 18.193 4.35 28.602 4.35 28.602zm5.035 50.483s-1.029-1.374 1.145-2.632c23.229-6.98 31.354-23.682 31.354-23.682-6.521 15.902-24.144 23.225-28.149 25.512-4.003 2.29-4.35.802-4.35.802zm7.142 73.118s1.94-7.369 5.321-.154c1.173 21.467 10.85 31.873 10.85 31.873-17.539-15.867-16.171-31.719-16.171-31.719zm36.797 3.162c-3.775-21.164-14.646-30.316-14.646-30.316 19.339 13.613 19.909 29.518 19.909 29.518s-1.03 7.548-5.263.798zm11.557-44.391c-1.833-1.604-16.135-18.761-32.385-18.535 8.585-.8 18.885-12.127 18.885-12.127-4.465 13.047 15.33 32.266 13.5 30.662zm11.788-57.659c.688-6.979-3.206-3.09-3.661-2.174-.458.914-6.521 11.555-10.298 12.355 0 0 6.294-5.721 9.497-15.674 1.486-3.432 3.894-2.86 3.894-2.86s2.746.801 2.52 4.92c-.229 4.118-1.377 12.241 1.829 16.131-2.524-3.433-4.469-5.719-3.781-12.698zm49.709 78.284c-5 3.555-9.938 10.354-10.922 19.777 1.164-15.104-8.102-20.746-9.535-21.523l-.191-.1.191.1c8.707 4.604 12.649 6.182 20.457 1.746.824-.588 1.654-1.096 2.467-1.504-.873.573-1.681 1.059-2.467 1.504z"/><path fill="#FAFAF6" d="M461.768 306.368s-10.756-3.431-8.924-15.554c1.373-27.903-21.281-27.676-21.281-27.676s-18.538-.458-25.403 19.899c-9.841 30.879-27.007 33.395-36.616 37.055-9.609 3.658-10.76-.23-10.76-.23s-2.518-4.573 4.577-8.235c35.013-10.519 36.157-38.655 36.157-38.655s-.46-10.293 16.477-16.469c19.224-8.005 22.199-18.298 22.199-18.298l23.068-43.424h-18.482c-5.449 11.302-14.832 30.739-15.799 32.675-1.377 2.745-7.559 16.468-21.974 19.213-14.419 2.745-15.79 13.037-17.624 22.188-1.83 9.147-5.949 21.271-24.486 28.819-6.768 2.754-11.121 6.119-13.929 9.282-4.881 5.501-5.062 10.389-5.062 10.389s-.461 17.61 17.619 16.239c47.145-4.57 56.299-42.314 56.299-42.314s4.121-15.097 13.274-15.325c9.844.228 8.469 11.208 8.469 21.729 0 10.52 8.01 18.983 16.938 22.187 8.922 3.202 11.67 9.608 15.104 15.328 3.432 5.72.688 10.063-.688 11.437-1.375 1.377-8.697 1.377-10.758-5.26-2.061-6.634-15.562-24.474-16.248-25.847-.688-1.373-17.624-15.553-29.293-3.89-11.441 13.037 2.747 28.364 2.747 28.364s9.151 7.547 24.485 30.646c16.936 39.801-17.85 56.727-17.85 56.727s-39.822 23.33-54.468-10.98c-14.647-34.311 5.264-42.312 5.264-42.312s6.864-1.375 7.552 6.172c0 13.725 6.407 25.162 7.555 27.906 1.144 2.742 21.511 26.764 41.878 4.346 18.077-23.787 1.145-43.23 1.145-43.23s-5.489-10.062-30.666-29.044c-28.376-20.816-52.178 11.206-52.178 11.206s-18.31 27.447-22.198 32.477c-3.894 5.033-19.227 14.867-25.176 7.318-5.264-8.922 8.24-19.213 13.958-23.785 7.096-6.406 3.435-3.893 9.616-10.98 6.175-7.088 7.551-22.416 1.142-39.342-6.181-18.069-22.659-16.696-22.659-16.696s-14.875.228-15.791 14.182c-.457 16.01-.457 25.847-10.297 28.59-7.552 2.517-18.766-11.894-11.898-36.826 8.695-24.245 29.062-18.983 37.989-15.782 8.924 3.201 31.353 17.841 57.898-1.372 27.921-18.069 17.622-46.661 17.622-46.661s-8.006-30.42-37.759-26.989c-24.717 8.92-12.813 27.219-12.813 27.219s7.778 7.776 9.154 14.638c-.229 9.607-21.743 8.921-27.694-.229-5.489-7.775.229-11.206 1.832-18.983 3.66-13.037-4.575-20.585-17.622-22.187-12.815-2.974-42.34 7.091-44.856 19.441l7.325 15.096s15.561 2.973 8.238 13.037c-11.214 12.352-24.943-7.32-24.943-7.32s-12.357-19.669-36.616-8.92c-23.343 11.894-19.911 26.99-16.476 36.139 3.203 10.293 24.256 9.149 31.121 8.006 2.518-1.602 22.657.916 17.854 15.781-5.492 14.867-21.512 3.431-24.487.688-2.976-2.745-19.909-12.81-36.618-2.059-16.708 10.752-15.791 40.258 2.289 53.754 17.851 13.494 45.771-9.605 45.771-9.605s10.299-6.404 16.479.229c4.807 6.404 1.145 12.58 1.145 12.58l-45.449 64.584h18.171c13.019-17.562 29.051-39.58 36.661-51.545 12.588-21.27 2.29-29.961-2.975-36.598-6.867-6.404-22.885-6.859-36.617 2.975-5.122 5.563-38.742 18.91-33.184-16.928 5.721-19.669 25.857-5.946 25.857-5.946s16.25 11.439 26.775 7.32c20.597-5.261 18.993-27.219 18.993-27.219s1.604-18.756-20.823-20.358c-20.142 2.287-26.775-2.974-27.463-4.117-1.83-1.601-3.432-12.81 9.612-17.154 14.646-4.117 27.921 14.868 27.921 14.868s11.899 11.666 24.943 6.862c13.73-4.804 13.73-10.52 16.478-16.696 4.119-12.124-9.154-21.73-9.154-21.73s-8.24-7.091 11.214-12.352c23.57-.915 12.13 17.384 12.13 17.384s-10.181 22.484 21.739 30.649c2.287.457 26.548 8.462 36.161-6.177 7.322-11.206 2.517-17.841 2.517-17.841s-5.264-7.318-10.299-15.095c-4.119-10.979 9.611-7.548 9.611-7.548s25.632 12.352 9.842 40.713c-20.141 24.932-51.035 10.063-51.035 10.063s-22.198-11.208-37.303-2.059c-28.605 13.725-22.427 51.464-22.427 51.464s3.89 30.42 25.173 27.219c20.369-2.975 23.574-18.527 22.889-25.159-.688-6.634 2.515-14.869 2.515-14.869s2.746-3.66 7.555-.688c8.469 7.776 8.239 22.874 5.49 29.735-2.747 6.861-16.249 16.467-23.802 25.389-7.552 8.922-8.468 22.416 3.662 29.961 13.274 7.551 22.657 2.518 30.896-2.289 8.242-4.803 11.441-8.463 26.319-33.85 14.875-25.392 29.064-20.814 39.363-15.783 10.297 4.574 21.738 19.9 25.175 22.645 3.431 2.746 16.707 25.389-1.604 32.709-18.308 7.32-20.598-18.527-21.056-23.33-.459-4.807-3.662-24.475-22.199-20.584-24.486 7.32-23.798 33.395-24.026 38.656-.229 5.258 6.635 40.484 39.59 46.658 28.377 4.117 52.176-7.09 63.164-29.734 14.871-25.615 1.602-59.236-10.76-69.763-20.599-16.927-19.451-23.56-17.391-25.391 2.057-1.83 8.693-3.658 23.572 20.587 8.236 23.561 19.68 21.271 19.68 21.271s11.902.227 16.938-14.182c5.491-29.28-22.887-43.23-22.887-43.23z"/><path fill="#A18E5C" d="M214.919 413.717c-1.634-1.201-3.562-1.043-4.929 1.025-1.508 2.572-1.523 8.033-1.523 8.033s5.662-2.27 7.069-4.102c1.403-1.831 1.016-3.755-.617-4.956zm8.543-12.373c-1.636-1.199-3.563-1.043-4.931 1.025-1.508 2.572-1.522 8.031-1.522 8.031s5.66-2.27 7.066-4.1c1.409-1.831 1.023-3.753-.613-4.956zm8.836-11.487c-1.635-1.203-3.563-1.047-4.929 1.021-1.51 2.57-1.521 8.031-1.521 8.031s5.659-2.27 7.067-4.1c1.405-1.83 1.017-3.75-.617-4.952zm8.839-12.962c-1.636-1.201-3.563-1.047-4.931 1.023-1.508 2.572-1.522 8.033-1.522 8.033s5.66-2.27 7.068-4.104c1.407-1.827 1.019-3.749-.615-4.952zm8.124-13.905c-1.812-.914-3.688-.447-4.694 1.816-1.067 2.783-.188 8.172-.188 8.172s5.211-3.164 6.302-5.201c1.087-2.031.389-3.865-1.42-4.787zm-1.631-16.337c-2.02.193-3.354 1.593-2.996 4.046.586 2.926 4.212 7.004 4.212 7.004s2.712-5.459 2.542-7.762c-.165-2.302-1.739-3.478-3.758-3.288zm-15.051-5.711c-.386 1.993.582 3.666 3.037 4.015 2.972.262 7.907-2.067 7.907-2.067s-4.475-4.14-6.734-4.626c-2.255-.488-3.825.689-4.21 2.678zm-12.989.267c-2.162.808-2.854 2.645-2.104 4.528.752 1.886 2.469 2.775 4.724 1.742 2.642-1.382 5.545-6.006 5.545-6.006s-6.001-1.074-8.165-.264zm-5.518 7.26s-6.092-.277-8.131.804c-2.041 1.085-2.484 2.995-1.492 4.767.992 1.77 2.812 2.43 4.908 1.105 2.442-1.713 4.715-6.676 4.715-6.676zm-22.371 4.658c-2.279.365-3.316 2.033-2.95 4.027.364 1.996 1.875 3.207 4.289 2.637 2.86-.838 6.614-4.805 6.614-4.805s-5.672-2.228-7.953-1.859zm-15.42-4.117c-1.344 1.521-1.363 3.455.576 5.002 2.426 1.732 7.861 2.238 7.861 2.238s-1.75-5.84-3.449-7.408c-1.696-1.57-3.646-1.356-4.988.168zm-.715-11.439c-.407-2.272-2.088-3.284-4.077-2.886-1.992.4-3.175 1.932-2.566 4.333.885 2.847 4.909 6.537 4.909 6.537s2.139-5.709 1.734-7.984zm-.151-13.702c.569-2.239-.546-3.852-2.524-4.311-1.977-.458-3.687.448-4.124 2.889-.369 2.959 1.775 7.981 1.775 7.981s4.306-4.322 4.873-6.559zm8.263-15.407c-1.285-1.567-3.195-1.894-5.029-.226-2.1 2.118-3.463 7.405-3.463 7.405s6.045-.799 7.862-2.224c1.813-1.425 1.916-3.384.63-4.955zm15.864.829c.292-2.006-.75-3.637-3.219-3.871-2.978-.123-7.808 2.428-7.808 2.428s4.661 3.934 6.938 4.315c2.279.382 3.796-.863 4.089-2.872zm8.396 8.447c1.861 1.367 3.774.938 4.943-.723 1.167-1.66.971-3.585-1.13-4.907-2.604-1.452-8.063-1.351-8.063-1.351s2.389 5.613 4.25 6.981zm19.374 3.569c.422-1.984-.512-3.679-2.961-4.074-2.965-.317-7.947 1.912-7.947 1.912s4.393 4.228 6.642 4.759c2.247.53 3.843-.612 4.266-2.597zm8.985-8.275c-2.146 2.071-3.626 7.327-3.626 7.327s6.062-.661 7.909-2.049c1.85-1.386 1.993-3.342.741-4.939-1.253-1.599-3.154-1.967-5.024-.339zm10.768-11.09c.361-2.282-.897-3.787-2.908-4.063-2.009-.274-3.632.783-3.843 3.255-.099 2.979 2.498 7.784 2.498 7.784s3.89-4.694 4.253-6.976zm-12.193-16.042c-1.624 1.217-2.037 3.106-.454 5.016 2.021 2.191 7.243 3.791 7.243 3.791s-.525-6.074-1.868-7.954c-1.344-1.878-3.298-2.065-4.921-.853zm-15.41-.243c.054 2.028 1.358 3.457 3.833 3.265 2.958-.386 7.278-3.723 7.278-3.723s-5.263-3.08-7.573-3.067c-2.312.012-3.594 1.495-3.538 3.525zm-15.024 0c.055 2.028 1.359 3.457 3.832 3.265 2.957-.386 7.28-3.723 7.28-3.723s-5.263-3.08-7.573-3.067c-2.312.01-3.594 1.495-3.539 3.525zm-11.524-9.456c-1.465 1.402-1.646 3.329.156 5.032 2.271 1.932 7.648 2.889 7.648 2.889s-1.256-5.967-2.814-7.67c-1.561-1.703-3.524-1.654-4.99-.251zm5.231-11.385c.732-2.19-.262-3.882-2.201-4.484-1.936-.604-3.707.171-4.326 2.574-.588 2.924 1.178 8.09 1.178 8.09s4.613-3.987 5.349-6.18zm10.947-12.816c-.932-1.802-2.73-2.52-4.871-1.27-2.494 1.634-4.929 6.521-4.929 6.521s6.077.479 8.151-.536c2.075-1.016 2.58-2.912 1.649-4.715zm15.094.022c.383-1.992-.584-3.667-3.041-4.012-2.973-.257-7.908 2.076-7.908 2.076s4.479 4.136 6.74 4.62c2.259.483 3.825-.691 4.209-2.684zm11.826 8.703c1.592-1.261 1.95-3.162.314-5.026-2.084-2.135-7.346-3.59-7.346-3.59s.693 6.057 2.09 7.898c1.395 1.842 3.352 1.975 4.942.718zm11.61 10.56c1.44-1.429 1.586-3.358-.246-5.028-2.308-1.891-7.699-2.752-7.699-2.752s1.363 5.943 2.954 7.618c1.59 1.674 3.55 1.59 4.991.162zm15.155 2.21c-.052-2.028-1.355-3.458-3.828-3.27-2.958.382-7.282 3.715-7.282 3.715s5.259 3.085 7.569 3.076c2.311-.011 3.594-1.494 3.541-3.521zm11.375-5.401c1.454-1.794 1.117-3.727-.487-4.972-1.604-1.244-3.535-1.138-4.955.895-1.575 2.531-1.73 7.989-1.73 7.989s5.716-2.118 7.172-3.912zm-5.229-15.49c1.427 2.619 6.103 5.441 6.103 5.441s.971-6.021.125-8.17c-.848-2.15-2.694-2.806-4.568-2.024-1.875.783-2.732 2.517-1.66 4.753zm-2.641-6.443s-.646-6.063-2.026-7.915c-1.38-1.853-3.336-2-4.938-.753-1.601 1.248-1.976 3.146-.354 5.022 2.066 2.15 7.318 3.646 7.318 3.646zm4.403-20.36c-1.16-1.665-3.034-2.139-4.995-.621-2.259 1.948-4.035 7.112-4.035 7.112s6.089-.32 8.011-1.601c1.925-1.28 2.179-3.227 1.019-4.89zm12.852.17c2.295-.262 3.408-1.877 3.134-3.889-.271-2.012-1.727-3.289-4.163-2.831-2.896.704-6.833 4.489-6.833 4.489s5.565 2.489 7.862 2.231zm13.81 2.201c2.025 1.112 3.865.435 4.807-1.363.938-1.799.49-3.682-1.765-4.716-2.771-1.1-8.17-.28-8.17-.28s3.104 5.247 5.128 6.359zm6.758 12.533c1.957.544 3.704-.284 4.248-2.705.5-2.939-1.424-8.052-1.424-8.052s-4.487 4.128-5.153 6.339c-.668 2.213.377 3.873 2.329 4.418zm.943 12.32c-.22-2.974-3.313-7.473-3.313-7.473s-3.366 5.085-3.481 7.393c-.116 2.308 1.297 3.667 3.325 3.727 2.026.057 3.526-1.168 3.469-3.647zm2.976 15.771c1.841 1.396 3.762.993 4.952-.648 1.19-1.644 1.023-3.57-1.055-4.923-2.584-1.491-8.043-1.47-8.043-1.47s2.306 5.643 4.146 7.041zm20.627 2.626c.284-2.009-.762-3.635-3.233-3.861-2.978-.114-7.798 2.453-7.798 2.453s4.673 3.916 6.951 4.291c2.284.377 3.79-.874 4.08-2.883zm13.75.046c2.103-.965 2.651-2.848 1.766-4.672-.887-1.825-2.666-2.586-4.838-1.392-2.535 1.573-5.092 6.397-5.092 6.397s6.069.634 8.164-.333zm.366-16.683c.632 2.914 4.319 6.941 4.319 6.941s2.63-5.501 2.427-7.802c-.206-2.302-1.792-3.454-3.81-3.232-2.017.224-3.335 1.644-2.936 4.093zm-5.901-17.662c-1.781.973-2.458 2.786-1.16 4.9 1.69 2.456 6.632 4.78 6.632 4.78s.344-6.088-.723-8.14c-1.066-2.051-2.97-2.513-4.749-1.54zm5.443-13.995c-1.472-1.4-3.399-1.49-5.019.389-1.825 2.359-2.533 7.772-2.533 7.772s5.901-1.529 7.528-3.167c1.633-1.637 1.492-3.594.024-4.994zm11.412 3.512c2.2.7 3.879-.319 4.453-2.266.573-1.946-.229-3.708-2.64-4.286-2.934-.545-8.071 1.3-8.071 1.3s4.058 4.551 6.258 5.252zm16.147 8.893c1.604-1.239 1.991-3.137.378-5.021-2.055-2.161-7.3-3.684-7.3-3.684s.614 6.066 1.986 7.925c1.375 1.862 3.329 2.018 4.936.78zm1.265 11.8c.426 2.271 2.118 3.264 4.104 2.849 1.987-.416 3.159-1.957 2.525-4.355-.909-2.84-4.964-6.494-4.964-6.494s-2.089 5.73-1.665 8zm-75.897 82.663c-1.971-.483-3.694.399-4.16 2.834-.409 2.953 1.669 8.002 1.669 8.002s4.358-4.265 4.958-6.494c.6-2.234-.495-3.859-2.467-4.342zm-1.801-12.487c-.408 2.954 1.671 8.004 1.671 8.004s4.357-4.266 4.959-6.497c.601-2.231-.498-3.859-2.468-4.343-1.972-.481-3.695.405-4.162 2.836zm13.202-6.08c2.146-.855 2.792-2.709 1.999-4.575-.793-1.868-2.532-2.718-4.763-1.633-2.609 1.441-5.406 6.133-5.406 6.133s6.025.933 8.17.075zm6.006-2.335s1.536 5.9 3.177 7.526c1.639 1.627 3.597 1.483 4.993.014 1.396-1.47 1.485-3.403-.396-5.019-2.36-1.818-7.774-2.521-7.774-2.521zm10.003 11.658s-2.305 5.647-1.968 7.932c.337 2.286 1.989 3.345 3.989 3.003 2.003-.337 3.233-1.83 2.695-4.251-.8-2.874-4.716-6.684-4.716-6.684zm-1.386 22.647c-.401 2.272.833 3.8 2.837 4.11 2.009.311 3.647-.721 3.896-3.189.149-2.977-2.361-7.824-2.361-7.824s-3.969 4.627-4.372 6.903zm-1.371 16.466c1.635-2.494 1.917-7.947 1.917-7.947s-5.765 1.986-7.261 3.746c-1.496 1.762-1.204 3.701.37 4.98 1.573 1.284 3.506 1.221 4.974-.779zm-11.305 10.559c1.929-2.273 2.88-7.65 2.88-7.65s-5.965 1.262-7.665 2.824c-1.704 1.564-1.65 3.521-.246 4.988 1.405 1.465 3.334 1.643 5.031-.162zm-13.504 12.277c1.8.939 3.683.492 4.717-1.764 1.1-2.773.28-8.17.28-8.17s-5.248 3.105-6.36 5.127c-1.113 2.024-.437 3.868 1.363 4.807zm-1.486 4.994s-.224 6.094.879 8.123c1.104 2.029 3.019 2.453 4.78 1.449 1.763-1.008 2.4-2.832 1.064-4.922-1.739-2.419-6.723-4.65-6.723-4.65zm16.704 8.631c-2.932.549-7.062 4.121-7.062 4.121s5.427 2.781 7.73 2.645c2.307-.141 3.502-1.693 3.336-3.717-.159-2.023-1.544-3.377-4.004-3.049zm12.33-4.732c-2.302 1.896-4.19 7.018-4.19 7.018s6.094-.184 8.048-1.418c1.952-1.234 2.25-3.176 1.128-4.867-1.128-1.69-2.993-2.208-4.986-.733zm15.251-10.184c-1.587-1.268-3.521-1.188-4.964.832-1.61 2.512-1.834 7.965-1.834 7.965s5.741-2.047 7.221-3.82c1.474-1.78 1.161-3.713-.423-4.977zm8.54-12.668c-1.587-1.266-3.521-1.186-4.965.836-1.608 2.512-1.832 7.963-1.832 7.963s5.742-2.047 7.224-3.82c1.474-1.776 1.159-3.713-.427-4.979zm2.986-11.836c-1.607 2.514-1.834 7.965-1.834 7.965s5.743-2.047 7.224-3.82c1.479-1.771 1.165-3.709-.421-4.979-1.59-1.26-3.52-1.179-4.969.834zm14.441-11.766c-1.47-1.399-3.4-1.489-5.018.39-1.821 2.357-2.532 7.773-2.532 7.773s5.9-1.529 7.531-3.17c1.629-1.639 1.485-3.594.019-4.993zm13.19-5.679c-.761-1.879-2.484-2.76-4.732-1.715-2.636 1.396-5.514 6.035-5.514 6.035s6.01 1.039 8.167.221c2.158-.818 2.838-2.66 2.079-4.541zm14.215 1.863c.554-1.953-.268-3.705-2.685-4.26-2.938-.512-8.057 1.383-8.057 1.383s4.105 4.512 6.312 5.188c2.21.677 3.877-.362 4.43-2.311zm7.483 8.605c1.888 1.331 3.793.868 4.929-.812 1.135-1.681.897-3.602-1.226-4.884-2.631-1.405-8.088-1.198-8.088-1.198s2.499 5.559 4.385 6.894zm16.121 8.811c1.322-1.535 1.321-3.475-.64-4.996-2.443-1.707-7.889-2.146-7.889-2.146s1.814 5.818 3.534 7.365c1.719 1.551 3.667 1.312 4.995-.223zm10.156 10.813c1.525-1.332 1.794-3.25.071-5.033-2.186-2.031-7.511-3.229-7.511-3.229s.982 6.02 2.467 7.789c1.483 1.77 3.445 1.809 4.973.473zm7.06 12.929c1.898-.715 2.819-2.414 1.831-4.689-1.333-2.67-5.898-5.658-5.898-5.658s-1.188 5.979-.422 8.156c.767 2.18 2.589 2.906 4.489 2.191zm.433 14.729c2.01.262 3.625-.809 3.818-3.279.072-2.979-2.553-7.766-2.553-7.766s-3.856 4.723-4.201 7.006c-.347 2.283.923 3.777 2.936 4.039zm-8.513 7.844c-1.485 1.77-1.185 3.705.397 4.979 1.584 1.271 3.517 1.201 4.971-.811 1.621-2.5 1.869-7.953 1.869-7.953s-5.749 2.017-7.237 3.785zm-10.722 5.144c-2.299.191-3.459 1.771-3.25 3.793.216 2.02 1.628 3.34 4.077 2.955 2.92-.617 6.964-4.281 6.964-4.281s-5.489-2.658-7.791-2.467zm-11.654-4.428c-1.759-1.496-3.699-1.201-4.979.369-1.28 1.572-1.221 3.508.781 4.975 2.493 1.633 7.949 1.912 7.949 1.912s-1.989-5.759-3.751-7.256zm-10.151-14.197c-2 .352-3.221 1.85-2.675 4.268.812 2.869 4.744 6.656 4.744 6.656s2.281-5.654 1.932-7.939c-.346-2.282-2.004-3.332-4.001-2.985zm-1.17-3.803s2.281-5.654 1.932-7.938c-.348-2.287-2.005-3.336-4.001-2.986-2 .35-3.221 1.85-2.675 4.268.81 2.865 4.744 6.656 4.744 6.656zm-3.518-14.58s-1.493-5.91-3.121-7.551c-1.625-1.641-3.584-1.512-4.994-.055-1.41 1.461-1.517 3.395.356 5.023 2.348 1.841 7.759 2.583 7.759 2.583zm-17.506 1.28c2.521-1.602 5.021-6.455 5.021-6.455s-6.069-.561-8.158.426c-2.088.988-2.618 2.877-1.715 4.689.904 1.818 2.694 2.56 4.852 1.34zm-12.936 7.824c-.811 2.16.122 3.889 2.038 4.559 1.918.672 3.716-.043 4.414-2.424.692-2.898-.896-8.125-.896-8.125s-4.746 3.826-5.556 5.99zm4.536 15.576c-.345-2.967-3.62-7.328-3.62-7.328s-3.151 5.217-3.174 7.525c-.021 2.311 1.447 3.609 3.477 3.588 2.028-.023 3.474-1.31 3.317-3.785zm2.746 13.863c-1.263-2.703-5.748-5.812-5.748-5.812s-1.345 5.945-.638 8.148c.705 2.199 2.514 2.971 4.43 2.303 1.914-.664 2.883-2.342 1.956-4.639zm-.269 8.602s.242 6.094 1.496 8.031c1.255 1.939 3.195 2.219 4.878 1.082 1.678-1.139 2.18-3.01.686-4.988-1.922-2.283-7.06-4.125-7.06-4.125zm17.848 13.49c-2.546-1.553-8.005-1.662-8.005-1.662s2.17 5.699 3.979 7.135c1.81 1.439 3.736 1.088 4.964-.527 1.229-1.614 1.106-3.543-.938-4.946zm12.311 4.176c-2.979.123-7.576 3.066-7.576 3.066s4.967 3.533 7.271 3.727c2.304.191 3.709-1.174 3.837-3.199.123-2.024-1.052-3.563-3.532-3.594zm14.292-.924c-2.893.721-6.801 4.533-6.801 4.533s5.583 2.453 7.873 2.178c2.297-.275 3.396-1.898 3.109-3.908-.288-2.008-1.746-3.279-4.181-2.803zm13.435-4.353c-2.565 1.52-5.229 6.281-5.229 6.281s6.051.766 8.17-.154c2.117-.916 2.715-2.783 1.866-4.631-.846-1.844-2.606-2.645-4.807-1.496zm12.007-7.592c-2.176 2.043-3.73 7.277-3.73 7.277s6.068-.576 7.936-1.938c1.869-1.355 2.041-3.311.814-4.928-1.229-1.618-3.123-2.011-5.02-.411zm14.49-11.424c-1.605-1.244-3.535-1.137-4.957.895-1.57 2.535-1.725 7.992-1.725 7.992s5.715-2.123 7.168-3.918c1.456-1.795 1.118-3.727-.486-4.969zm4.938-14.783c-1.922-.648-3.713.084-4.387 2.475-.654 2.908.992 8.113.992 8.113s4.701-3.881 5.488-6.053c.786-2.168-.173-3.885-2.093-4.535zm.24-15.41c-2.025-.07-3.533 1.141-3.498 3.623.203 2.975 3.264 7.494 3.264 7.494s3.4-5.062 3.533-7.371c.133-2.303-1.269-3.672-3.299-3.746zm-4.316-15.448c-1.977.459-3.117 2.021-2.439 4.406.967 2.822 5.1 6.393 5.1 6.393s1.969-5.771 1.498-8.029c-.47-2.266-2.179-3.225-4.159-2.77zm-3.531-11.961c-1.125-2.02-3.039-2.43-4.795-1.402-1.752 1.021-2.375 2.854-1.018 4.93 1.766 2.406 6.768 4.588 6.768 4.588s.164-6.096-.955-8.116zm-10.46-11.836c-1.383-1.854-3.344-1.994-4.939-.742-1.596 1.251-1.964 3.151-.339 5.021 2.072 2.146 7.325 3.627 7.325 3.627s-.663-6.06-2.047-7.906zm-9.721-10.902c-1.385-1.848-3.344-1.99-4.938-.738-1.597 1.25-1.967 3.149-.342 5.021 2.072 2.146 7.327 3.627 7.327 3.627s-.662-6.06-2.047-7.91zm-4.228-11.614c-.183-2.303-1.762-3.472-3.776-3.271-2.018.203-3.35 1.608-2.978 4.062.604 2.923 4.245 6.991 4.245 6.991s2.687-5.48 2.509-7.782zm9.095-7.971c-.231-2.017-1.663-3.322-4.105-2.914-2.91.648-6.92 4.354-6.92 4.354s5.518 2.601 7.812 2.385c2.302-.214 3.449-1.81 3.213-3.825zm12.14 8.496c1.271-1.581 1.201-3.515-.809-4.969-2.504-1.62-7.953-1.872-7.953-1.872s2.018 5.753 3.785 7.239c1.766 1.488 3.705 1.182 4.977-.398zm8.904 7.462c-1.781-2.392-6.807-4.528-6.807-4.528s-.113 6.099 1.027 8.107c1.139 2.009 3.062 2.397 4.809 1.36 1.739-1.037 2.348-2.876.971-4.939zm7.291 12.371c-1.785-2.393-6.809-4.525-6.809-4.525s-.111 6.1 1.027 8.104c1.141 2.009 3.064 2.397 4.809 1.36 1.741-1.036 2.35-2.872.973-4.939zm8.502 9.479c-2.729-1.211-8.152-.605-8.152-.605s2.896 5.367 4.873 6.561c1.979 1.189 3.846.588 4.855-1.174s.639-3.661-1.576-4.782zm8.104-4.584c-2.033 2.182-3.232 7.508-3.232 7.508s6.02-.98 7.791-2.463c1.77-1.48 1.811-3.442.477-4.971-1.337-1.531-3.251-1.799-5.036-.074zm.007-11.367c.885 2.85 4.904 6.542 4.904 6.542s2.145-5.709 1.738-7.983c-.406-2.273-2.084-3.283-4.078-2.887-1.986.394-3.173 1.924-2.564 4.328zm.278-7.664s-.045-6.097-1.234-8.077c-1.189-1.979-3.123-2.318-4.84-1.234-1.717 1.083-2.275 2.935-.848 4.963 1.845 2.342 6.922 4.348 6.922 4.348zm-17.733-12.201c2.523 1.589 7.979 1.773 7.979 1.773s-2.092-5.73-3.879-7.191c-1.785-1.463-3.719-1.137-4.973.459-1.248 1.6-1.156 3.532.873 4.959zm-5.746-14.062c-1.078-2.046-2.982-2.499-4.762-1.518s-2.441 2.798-1.139 4.906c1.705 2.446 6.654 4.748 6.654 4.748s.321-6.09-.753-8.136zm-4.703-5.817s2.885-5.371 2.789-7.68c-.094-2.309-1.627-3.533-3.652-3.406-2.021.126-3.402 1.483-3.123 3.946.492 2.945 3.986 7.14 3.986 7.14zm-2.615-23.482c-.912-2.122-2.779-2.719-4.625-1.876-1.85.843-2.648 2.603-1.512 4.803 1.516 2.571 6.271 5.243 6.271 5.243s.78-6.049-.134-8.17zm-15.622 1.064c2.921-.615 6.966-4.28 6.966-4.28s-5.485-2.658-7.789-2.467c-2.3.191-3.459 1.772-3.251 3.792.211 2.019 1.624 3.339 4.074 2.955zm-9.125 6.858c1.721-2.437 2.197-7.875 2.197-7.875s-5.831 1.782-7.389 3.487c-1.56 1.706-1.33 3.655.192 4.991 1.527 1.334 3.463 1.343 5-.603zm-10.426 14.628c1.878.77 3.712.148 4.534-2.191.842-2.861-.475-8.16-.475-8.16s-4.937 3.573-5.859 5.691c-.92 2.119-.076 3.889 1.8 4.66zm-2.672 11.785c1.231-2.716.683-8.147.683-8.147s-5.393 2.843-6.604 4.812c-1.211 1.966-.625 3.84 1.128 4.865 1.748 1.024 3.652.669 4.793-1.53zm-10.869 11.672c2.056-2.161 3.31-7.475 3.31-7.475s-6.025.923-7.812 2.388c-1.787 1.464-1.846 3.426-.526 4.965 1.313 1.541 3.226 1.827 5.028.122zm-13.692 7.619c2.615-1.434 5.432-6.114 5.432-6.114s-6.022-.959-8.171-.109c-2.149.849-2.802 2.698-2.014 4.568.781 1.87 2.518 2.729 4.753 1.655zm-16.771-2.328c-2.273.4-3.286 2.08-2.896 4.072.396 1.989 1.921 3.176 4.327 2.575 2.854-.878 6.552-4.895 6.552-4.895s-5.707-2.153-7.983-1.752zm-9.116-3.439c-1.499-1.758-3.459-1.775-4.976-.428-1.519 1.35-1.767 3.27-.024 5.037 2.201 2.009 7.541 3.158 7.541 3.158s-1.04-6.008-2.541-7.767zm1.605-12.519c-1.435-1.437-3.362-1.579-5.029.258-1.883 2.31-2.732 7.705-2.732 7.705s5.939-1.375 7.612-2.969c1.671-1.596 1.583-3.558.149-4.994zm11.674-1.855c2.044-1.075 2.491-2.985 1.512-4.76-.983-1.774-2.8-2.438-4.906-1.131-2.445 1.707-4.739 6.66-4.739 6.66s6.084.308 8.133-.769zm5.094-5.632s6.021-.947 7.804-2.418c1.784-1.473 1.834-3.433.51-4.968-1.326-1.537-3.241-1.814-5.035-.103-2.049 2.169-3.279 7.489-3.279 7.489zm18.237-14.706c1.433-1.812 1.074-3.74-.545-4.965-1.617-1.226-3.552-1.098-4.944.952-1.546 2.55-1.64 8.009-1.64 8.009s5.696-2.184 7.129-3.996zm5.123-15.807c.754-2.182-.22-3.884-2.152-4.508-1.933-.623-3.713.135-4.354 2.529-.615 2.917 1.095 8.101 1.095 8.101s4.657-3.938 5.411-6.122zm5.91-16.404c-1.561-1.301-3.493-1.266-4.982.717-1.667 2.475-2.016 7.923-2.016 7.923s5.787-1.915 7.307-3.656c1.521-1.743 1.249-3.685-.309-4.984zm11.912.285c2.188-.747 2.927-2.562 2.229-4.469-.695-1.905-2.389-2.844-4.669-1.876-2.683 1.307-5.716 5.848-5.716 5.848s5.968 1.241 8.156.497zm13.466-13.663c-1.367-1.5-3.289-1.725-5.035.037-1.984 2.228-3.068 7.578-3.068 7.578s5.994-1.112 7.733-2.634c1.737-1.52 1.736-3.483.37-4.981zm8.582-8.983c1.248-1.943.701-3.827-1.029-4.887-1.729-1.061-3.642-.743-4.827 1.434-1.286 2.689-.843 8.132-.843 8.132s5.45-2.735 6.699-4.679zm7.069-13.258c1.248-1.943.703-3.827-1.029-4.886-1.729-1.062-3.641-.743-4.822 1.435-1.289 2.688-.844 8.131-.844 8.131s5.447-2.735 6.695-4.68zm6.48-13.473c1.25-1.943.701-3.827-1.027-4.887-1.73-1.061-3.643-.743-4.828 1.435-1.287 2.69-.84 8.132-.84 8.132s5.447-2.738 6.695-4.68zm-79.714 58.736c-.445 2.268.759 3.817 2.759 4.163 2 .347 3.656-.653 3.959-3.114.203-2.976-2.217-7.868-2.217-7.868s-4.056 4.552-4.501 6.819zm-1.475 16.171c1.523-2.565 1.563-8.025 1.563-8.025s-5.673 2.243-7.086 4.067c-1.419 1.824-1.037 3.75.593 4.958 1.625 1.211 3.554 1.063 4.93-1zm-18.259 9.226c.942 1.796 2.747 2.499 4.882 1.234 2.479-1.653 4.878-6.558 4.878-6.558s-6.078-.436-8.148.597c-2.062 1.031-2.556 2.932-1.612 4.727zm-13.034-.313c-2.299.225-3.438 1.823-3.196 3.838.241 2.015 1.673 3.315 4.118 2.896 2.909-.657 6.898-4.381 6.898-4.381s-5.523-2.578-7.82-2.353zm-19.246 1.744c-.422 1.983.513 3.678 2.961 4.071 2.967.317 7.949-1.915 7.949-1.915s-4.396-4.226-6.646-4.757c-2.249-.527-3.842.616-4.264 2.601zm-9.995-7.439c-2.152-.84-3.891.071-4.586 1.977-.698 1.906-.008 3.715 2.36 4.447 2.892.729 8.139-.784 8.139-.784s-3.761-4.802-5.913-5.64zm-8.437.721s-4.618-3.982-6.892-4.39c-2.273-.408-3.803.821-4.118 2.825-.314 2.006.708 3.647 3.175 3.906 2.981.159 7.835-2.341 7.835-2.341zm-15.614-1.962s-6.032-.874-8.17.004c-2.137.879-2.764 2.737-1.951 4.596.812 1.86 2.56 2.692 4.777 1.586 2.594-1.47 5.344-6.186 5.344-6.186zm-20.386 15.813c1.672 1.145 3.598.923 4.892-1.193 1.419-2.624 1.243-8.08 1.243-8.08s-5.58 2.463-6.924 4.342c-1.342 1.878-.889 3.787.789 4.931zm-7.332 9.708c-.828 2.155.093 3.891 2.006 4.574 1.911.688 3.714-.015 4.43-2.389.712-2.896-.832-8.133-.832-8.133s-4.774 3.79-5.604 5.948zm4.865 16.395c-.409-2.954-3.776-7.251-3.776-7.251s-3.042 5.285-3.014 7.595c.028 2.312 1.521 3.58 3.552 3.514 2.028-.07 3.445-1.387 3.238-3.858zm-2.779 8.74s-1.309 5.955-.585 8.148c.722 2.194 2.531 2.955 4.443 2.277 1.913-.676 2.87-2.355 1.926-4.648-1.279-2.697-5.784-5.777-5.784-5.777zm14.48 15.173c-2.705-1.253-8.145-.742-8.145-.742s2.804 5.415 4.764 6.64c1.96 1.229 3.836.654 4.875-1.088 1.038-1.745.695-3.651-1.494-4.81zm10.983-3.038c-2.356 1.822-4.404 6.889-4.404 6.889s6.097.004 8.086-1.172c1.989-1.178 2.346-3.105 1.275-4.829-1.07-1.726-2.917-2.302-4.957-.888z"/></svg>