<svg xmlns="http://www.w3.org/2000/svg" viewBox="0 0 28 18" enable-background="new 0 0 28 18"><g fill="#FAFAF6"><path d="M26.743 0h-25.489c-.7 0-1.268.567-1.268 1.268v.943l12.757 10.239c.694.694 1.818.694 2.514 0l12.756-10.239v-.943c0-.701-.569-1.268-1.27-1.268z"/><path d="M22.237 7.917l3.76 8.171-5.125-7.029-5.615 4.693c-.695.691-1.819.691-2.514 0l-5.625-4.703-5.133 7.039 3.766-8.181-5.764-4.816v13.679c0 .702.567 1.27 1.268 1.27h25.489c.701 0 1.27-.567 1.27-1.27v-13.679l-5.777 4.826z"/></g></svg>