<svg xmlns="http://www.w3.org/2000/svg" viewBox="0 0 320 640"><path fill="#d63737" d="M278.467 122.063s2.95-21.146-20.842-32.368c-26.526-14.386-80.12-44.757-80.12-44.757s-14.353-10.999-33.293-.266c-19.524 11.062-84.992 48.22-84.992 48.22s-15.699 7.992-15.699 28.506v91.378s-1.354 17.051 15.158 27.44l82.015 45.556s1.558 1.2 4.224 2.605c7.506 6.525 15.301 17.295 16.829 34.42 0 0 .544-21.835 18.922-36.414l79.157-44.44s20.328-7.67 18.642-33.005c-.001-48.619-.001-86.875-.001-86.875z"/><path fill="#fff" d="M114.124 168.029h-17.01c-1.127 0-2.041.526-2.041 1.176v37.619c0 .649.914 1.176 2.041 1.176h17.01c1.127 0 2.041-.526 2.041-1.176v-37.619c0-.649-.914-1.176-2.041-1.176z"/><path fill="#fff" d="M142.124 138.028h-17.01c-1.127 0-2.041.921-2.041 2.058v65.856c0 1.137.914 2.058 2.041 2.058h17.01c1.127 0 2.042-.921 2.042-2.058v-65.856c-.001-1.137-.915-2.058-2.042-2.058z"/><path fill="#fff" d="M170.123 107.026h-17.009c-1.127 0-2.042 1.33-2.042 2.97v95.034c0 1.641.914 2.97 2.042 2.97h17.009c1.128 0 2.041-1.329 2.041-2.97v-95.034c0-1.64-.913-2.97-2.041-2.97z"/><path fill="#fff" d="M198.123 138.028h-17.01c-1.127 0-2.041.921-2.041 2.058v65.856c0 1.137.914 2.058 2.041 2.058h17.01c1.128 0 2.041-.921 2.041-2.058v-65.856c0-1.137-.913-2.058-2.041-2.058z"/><path fill="#fff" d="M226.123 168.029h-17.01c-1.127 0-2.041.526-2.041 1.176v37.619c0 .649.914 1.176 2.041 1.176h17.01c1.128 0 2.042-.526 2.042-1.176v-37.619c0-.649-.914-1.176-2.042-1.176z"/></svg>