<svg xmlns="http://www.w3.org/2000/svg" viewBox="0 0 320 640"><path fill="#fff" d="M277.467 122.063s2.949-21.146-20.842-32.368c-26.526-14.386-80.12-44.757-80.12-44.757s-14.353-10.999-33.293-.266c-19.524 11.062-84.992 48.22-84.992 48.22s-15.699 7.992-15.699 28.506v91.378s-1.354 17.051 15.158 27.44l82.015 45.556s1.558 1.2 4.224 2.605c7.506 6.525 15.301 17.295 16.829 34.42 0 0 .544-21.835 18.922-36.414l79.157-44.44s20.327-7.67 18.642-33.005c-.001-48.619-.001-86.875-.001-86.875z"/><g fill="#A18E5C"><circle cx="158.871" cy="118.547" r="16.417"/><circle cx="195.528" cy="132.881" r="13.583"/><circle cx="121.871" cy="132.881" r="13.583"/><path d="M158.538 222.131c10.46 0 20.597-.409 30.248-1.174v-51.909c0-16.523-13.392-29.917-29.914-29.917-16.523 0-29.917 13.394-29.917 29.917v51.963c9.451.73 19.363 1.12 29.583 1.12z"/><path d="M195.529 149.964c-2.369 0-4.658.337-6.829.954 3.226 5.288 5.086 11.495 5.086 18.13v51.464c9.467-.887 18.435-2.109 26.698-3.641v-41.951c0-13.784-11.172-24.956-24.955-24.956z"/><path d="M123.955 169.048c0-6.6 1.842-12.777 5.037-18.048-2.258-.671-4.646-1.036-7.12-1.036-13.783 0-24.957 11.172-24.957 24.956v42.011c8.367 1.54 17.45 2.763 27.04 3.643v-51.526z"/></g></svg>