<svg xmlns="http://www.w3.org/2000/svg" viewBox="0 0 320 640" enable-background="new 0 0 320 640"><path fill="#A18E5C" d="M277.467 122.064s2.95-21.147-20.842-32.369c-26.526-14.386-80.12-44.757-80.12-44.757s-14.353-10.999-33.292-.266c-19.524 11.062-84.992 48.22-84.992 48.22s-15.699 7.992-15.699 28.506v91.378s-1.354 17.051 15.158 27.44l82.015 45.556s1.558 1.2 4.224 2.605c7.506 6.525 15.301 17.295 16.829 34.42 0 0 .544-21.835 18.922-36.414l79.157-44.44s20.327-7.67 18.642-33.005c-.002-48.619-.002-86.874-.002-86.874z"/><path fill="#fff" d="M198.717 166.73c-6.183-10.562-13.138-31.429-5.667-36.065-15.457 1.804-14.941 24.473-14.941 24.473s-5.667-1.03-1.804-27.564c3.864-26.533-14.941-38.384-14.941-38.384s10.82 20.352-6.183 40.188c-7.119 8.038-7.277 18.934-7.228 21.206l.015.434-.015-.434c-.142-3.477-1.644-27.736-16.214-38.724 10.82 20.609-6.183 53.068-6.183 53.068s-34.399 63.277 29.57 70.313c-3.039-2.721-26.534-25.615 7.783-54.857-5.667 18.806 4.38 23.7 4.122 23.958 1.802 2.317 26.765 15.7 4.927 31.147 42.63-4.62 34.699-54.323 26.759-68.759z"/></svg>