<svg xmlns="http://www.w3.org/2000/svg" viewBox="0 0 24 23"><path fill="#fff" d="M1.274 23.005h4.718v-15.526h-4.718v15.526zm2.39-23.01c-1.614 0-2.669 1.159-2.669 2.682 0 1.491 1.024 2.684 2.607 2.684h.031c1.645 0 2.669-1.192 2.669-2.684-.031-1.523-1.024-2.682-2.638-2.682zm13.909 7.119c-2.507 0-3.626 1.509-4.253 2.566v.05h-.031l.031-.05v-2.201h-4.717c.062 1.457 0 15.525 0 15.525h4.718v-8.671c0-.464.031-.927.156-1.259.341-.927 1.117-1.887 2.42-1.887 1.708 0 2.391 1.424 2.391 3.51v8.307h4.718v-8.902c-.001-4.768-2.328-6.988-5.433-6.988z"/></svg>