<?xml version="1.0" encoding="utf-8"?>
<!-- Generator: Adobe Illustrator 16.0.3, SVG Export Plug-In . SVG Version: 6.00 Build 0)  -->
<!DOCTYPE svg PUBLIC "-//W3C//DTD SVG 1.1//EN" "http://www.w3.org/Graphics/SVG/1.1/DTD/svg11.dtd">
<svg version="1.1" id="Layer_1" xmlns="http://www.w3.org/2000/svg" xmlns:xlink="http://www.w3.org/1999/xlink" x="0px" y="0px"
	 width="1100px" height="500px" viewBox="0 50 1100 500" enable-background="new 0 50 1100 500" xml:space="preserve">
<path fill="#2B2B2B" d="M439.812,222.917c0,0,5.052-36.8-35.693-56.325c-45.434-25.034-137.221-77.88-137.221-77.88
	s-24.578-19.142-57.022-0.465c-33.438,19.251-145.564,83.907-145.564,83.907s-26.889,13.907-26.889,49.604v159.009
	c0,0-2.317,29.668,25.962,47.746c28.278,18.078,140.464,79.271,140.464,79.271s31.848,25.027,64.638,3.244l139.397-79.512
	c0,0,34.813-13.344,31.927-57.434L439.812,222.917L439.812,222.917z"/>
<path fill="#D63737" d="M384.542,334.959c4.121-2.938,7.507-8.084,9.887-12.572l-0.026-0.09l0.245-0.322
	c2.332-4.477,3.635-8.182,3.635-8.182l0.021,0.369c2.578-11.234-3.556-24.621-12.95-27.185c0.213-10.123,2.154-23.043-19.178-26.918
	c1.076-29.504-16.593-35.965-23.056-38.765c-6.465-2.799-12.281-5.815-12.281-5.815s-3.299-5.375-9.806-8.218v0.05
	c0,0-9.586-4.524-18.314,4.74c4.661-5.142,7.58-6.387,8.766-6.688c-5.904-7.274-14.261-12.242-26.044-9.425
	c1.954,1.544,6.524,5.465,10.435,15.109c0.764,1.59,1.386,3.252,1.784,4.99c-0.568-1.814-1.169-3.473-1.784-4.99
	c-6.264-12.991-23.106-20.862-23.106-20.862l0.098-0.339c-10.477-3.86-20.14-2.953-28.648,1.299
	c-10.559-6.676-23.056-4.308-31.029,0.215c-18.532-6.029-29.952,1.939-39.216,7.753c-13.193-1.087-21.405,1.86-27.131,6.347
	c0.186-0.077,0.231-0.08,0.09,0.022c-1.187,0.861-7.542,7.863-2.156,9.91c8.768,2.504,18.196-5.237,21.145-7.938
	c0.57-0.579,0.94-0.896,0.94-0.896s-0.338,0.346-0.94,0.896c-3.065,3.119-11.896,13.818,0.186,23.445
	c-27.148-22.188-39.215-14.219-39.215-14.219l0.564-0.666c-6.546,2.489-10.109,7.572-14.676,13.463
	c-7.655,4.35-13.527,9.957-17.188,17.03c1.548-2.345,2.692-3.909,2.318-2.79c-0.971,2.908-9.587,11.848-1.725,33.5
	c-3.951-5.35-5.699-14.902-6.307-19.117c-8.216,5.789-8.713,9.674-7.917,19.613c-5.169,5.385-4.956,14.859-0.647,22.613
	c-3.231,18.953,5.172,28.212,9.91,30.15c1.725,5.6,7.327,16.799,27.366,14.428c1.507,3.441,15.514,11.201,32.966,4.525
	c19.393-7.758,11.635,5.814,11.635,5.814s4.652,12.746,26.576,11.162c6.174-9.33-17.154-25.168-14.079-23.156
	c2.982,1.951,12.241,11.438,23.383-4.639c0.503-0.814,1.03-1.631,1.613-2.475c-0.542,0.891-1.078,1.701-1.613,2.475
	c-11.933,19.225-3.021,31.027-3.021,31.027l-0.301,0.029c3.387,4.963,10.901,13.514,23.734,16.207l-0.753-0.35
	c0,0,19.067,3.393,26.749-2.748c-1.775,4.295-11.146,5.771-14.514,6.125c8.085,11.992,20.336,16.734,31.352,15.252
	c-3.205-6.277-6.639-27.211-4.638-17.584c2.18,10.502,12.688,25.207,12.688,25.207l-0.039,0.021
	c10.031,11.244,26.201,14.846,37.231,9.332c19.833,10.205,54.869-4.984,62.887-37.59l-0.292,0.037c0,0,4.524-19.391-0.403-29.248
	c2.986,3.934,5.279,12.83,5.025,18.371c16.018-5.852,24.127-29.09,20.643-46.469C392.111,329.998,386.365,333.791,384.542,334.959
	L384.542,334.959z M108.602,317.273c3.67-8.494,0.364-17.087-1.426-20.707c-0.34-0.57-0.669-1.155-0.973-1.785
	c0,0,0.412,0.652,0.973,1.785c5.087,8.484,13.948,9.998,18.64,10.15c1.517-0.084,2.619-0.031,3.012-0.088
	c0.493-0.064-0.793,0.16-3.012,0.088C121.303,306.969,113.082,308.412,108.602,317.273L108.602,317.273z M146.605,346.057
	c0,0,10.45-24.664-20.041-3.016c0,0,15.191-17.344,23.919-11.742C155.008,336.467,146.605,346.057,146.605,346.057L146.605,346.057z
	 M132.761,247.627c0,0-4.285-0.242-1.94-3.23c6.062-4.605,21.495,9.611,21.495,9.611
	C143.832,246.737,132.761,247.627,132.761,247.627L132.761,247.627z M154.255,305.016c9.696-3.018,11.634-13.251,11.634-13.251
	c-1.186,8.295-0.324,12.929,3.771,20.576C167.075,309,162.12,304.479,154.255,305.016z M181.556,260.11
	c-4.705,3.345-9.357,9.748-10.279,18.621c1.093-14.22-7.628-19.531-8.978-20.266l-0.181-0.094l0.181,0.094
	C170.495,262.798,174.21,264.285,181.556,260.11c0.78-0.553,1.558-1.032,2.326-1.414C183.058,259.233,182.298,259.69,181.556,260.11
	z M242.922,195.79c-5.281,10.771-7.65,13.895-7.544,21.113c0.108,7.217,5.28,14.971,9.698,17.88
	c1.724,1.616,3.019,3.878,3.019,3.878s-8.403-12.495-18.854-3.016c12.178-21.006-0.97-33.5-5.926-39.962
	C223.313,195.682,235.057,210.005,242.922,195.79z M202.967,230.807c-0.041-0.431-0.086-0.854-0.122-1.304
	C202.844,229.502,202.911,229.989,202.967,230.807c0.962,9.842,3.266,15.577,10.819,19.81c1.003,0.456,1.797,0.888,2.31,1.185
	c-0.826-0.381-1.582-0.779-2.31-1.185c-4.055-1.843-11.617-4.101-18.699,0.216C203.243,245.78,203.228,234.612,202.967,230.807
	L202.967,230.807z M198.533,281.96c-8.834,11.743-3.341,31.022-3.341,31.022s-3.877-4.846-2.584-17.986
	c1.293-13.143-3.665-16.912-3.665-16.912s2.694,2.154,14.546-3.77c11.851-5.924,16.159-1.617,16.159-1.617
	S207.368,270.223,198.533,281.96z M206.937,333.129c14.975-6.248,14.763-30.697,14.763-30.697s1.722-6.25,4.631-0.215
	C232.041,323.977,206.937,333.129,206.937,333.129z M230.638,354.779c-4.203,5.602-6.788,3.121-6.788,3.121s-3.233-1.514,1.078-5.49
	C248.739,334.744,251,316.43,251,316.43C250.466,331.836,234.842,349.178,230.638,354.779L230.638,354.779z M254.518,379.844
	c0.131,0.59,0.249,1.264,0.339,2.059C254.716,381.184,254.608,380.504,254.518,379.844c-1.499-6.691-5.315-1.174-5.315-1.174
	l7.918-15.188C255.918,367.15,253.334,371.32,254.518,379.844z M260.765,277.838c-12.708,8.758-10.276,22.631-9.979,29.439
	c-2.85-16.621-4.724-21.392-16.504-29.31c-2.323-1.248-3.645-2.361-3.645-2.361c1.314,0.826,2.522,1.607,3.645,2.361
	C239.354,280.69,249.217,284.03,260.765,277.838c0.966-0.667,2.016-1.307,3.163-1.908
	C262.862,276.651,261.808,277.283,260.765,277.838z M270.935,245.336c6.679-11.742-5.065-22.836-6.465-24.453
	c-1.4-1.615-0.431-3.338-0.431-3.338s2.154-1.188,2.8,0.861C280.63,235.538,270.935,245.336,270.935,245.336L270.935,245.336z
	 M275.675,292.87c0,0-0.969-1.293,1.078-2.479c21.871-6.572,29.521-22.297,29.521-22.297c-6.14,14.973-22.732,21.867-26.504,24.021
	C276.003,294.27,275.675,292.87,275.675,292.87z M282.4,361.713c0,0,1.827-6.938,5.01-0.145c1.104,20.211,10.216,30.01,10.216,30.01
	C281.112,376.639,282.4,361.713,282.4,361.713L282.4,361.713z M317.046,364.689c-3.554-19.93-13.789-28.547-13.789-28.547
	c18.208,12.818,18.745,27.793,18.745,27.793S321.032,371.045,317.046,364.689z M327.927,322.895
	c-1.726-1.51-15.191-17.664-30.492-17.451c8.084-0.754,17.781-11.417,17.781-11.417C311.012,306.309,329.65,324.402,327.927,322.895
	L327.927,322.895z M339.026,268.604c0.648-6.57-3.019-2.91-3.447-2.047c-0.431,0.86-6.14,10.879-9.695,11.633
	c0,0,5.926-5.387,8.941-14.758c1.399-3.23,3.667-2.692,3.667-2.692s2.585,0.754,2.372,4.632c-0.216,3.877-1.296,11.525,1.723,15.188
	C340.21,277.33,338.379,275.175,339.026,268.604L339.026,268.604z M385.829,342.313c-4.707,3.35-9.356,9.75-10.283,18.621
	c1.097-14.221-7.628-19.531-8.978-20.264l-0.181-0.096l0.181,0.096C374.766,345.004,378.478,346.49,385.829,342.313
	c0.776-0.553,1.558-1.029,2.323-1.414C387.33,341.438,386.569,341.895,385.829,342.313z"/>
<path fill="#FAFAF6" d="M367.697,282.458c0,0-10.127-3.229-8.402-14.646c1.293-26.271-20.037-26.058-20.037-26.058
	s-17.454-0.431-23.918,18.736c-9.266,29.073-25.428,31.442-34.476,34.889c-9.047,3.444-10.131-0.216-10.131-0.216
	s-2.37-4.307,4.31-7.754c32.966-9.904,34.043-36.395,34.043-36.395s-0.433-9.691,15.514-15.507
	c18.101-7.536,20.901-17.228,20.901-17.228l21.72-40.886h-17.4c-5.131,10.642-13.965,28.942-14.876,30.765
	c-1.296,2.584-7.116,15.505-20.688,18.09c-13.576,2.584-14.867,12.275-16.594,20.891c-1.724,8.612-5.602,20.027-23.055,27.135
	c-6.372,2.593-10.471,5.761-13.115,8.738c-4.596,5.18-4.766,9.782-4.766,9.782s-0.435,16.581,16.589,15.29
	c44.389-4.303,53.008-39.838,53.008-39.838s3.88-14.214,12.498-14.429c9.269,0.214,7.974,10.553,7.974,20.457
	c0,9.906,7.542,17.873,15.948,20.891c8.4,3.016,10.987,9.044,14.221,14.431c3.231,5.385,0.647,9.477-0.646,10.77
	c-1.295,1.297-8.189,1.297-10.13-4.951c-1.94-6.246-14.651-23.043-15.298-24.336c-0.647-1.292-16.594-14.644-27.58-3.663
	c-10.772,12.275,2.586,26.707,2.586,26.707s8.616,7.105,23.054,28.855c15.946,37.475-16.807,53.408-16.807,53.408
	s-37.494,21.969-51.283-10.338c-13.791-32.305,4.956-39.838,4.956-39.838s6.463-1.295,7.11,5.814
	c0,12.922,6.032,23.688,7.113,26.271c1.077,2.58,20.254,25.199,39.43,4.092c17.021-22.395,1.078-40.701,1.078-40.701
	s-5.168-9.477-28.873-27.348c-26.717-19.598-49.128,10.551-49.128,10.551s-17.239,25.846-20.9,30.578
	c-3.666,4.738-18.103,13.998-23.704,6.893c-4.957-8.4,7.758-18.09,13.142-22.396c6.681-6.029,3.234-3.666,9.054-10.338
	c5.813-6.674,7.109-21.105,1.075-37.042c-5.819-17.013-21.334-15.72-21.334-15.72s-14.005,0.214-14.868,13.354
	c-0.43,15.074-0.43,24.333-9.695,26.917c-7.11,2.369-17.669-11.199-11.202-34.673c8.187-22.828,27.363-17.873,35.768-14.859
	c8.402,3.015,29.52,16.799,54.513-1.291c26.289-17.014,16.592-43.934,16.592-43.934s-7.538-28.642-35.552-25.411
	c-23.271,8.398-12.063,25.627-12.063,25.627s7.323,7.32,8.618,13.781c-0.215,9.045-20.472,8.398-26.075-0.215
	c-5.168-7.32,0.216-10.551,1.725-17.874c3.446-12.274-4.308-19.381-16.592-20.89c-12.066-2.8-39.865,6.676-42.234,18.304
	l6.897,14.213c0,0,14.651,2.8,7.756,12.274c-10.559,11.631-23.485-6.891-23.485-6.891s-11.634-18.52-34.475-8.398
	c-21.979,11.199-18.747,25.412-15.513,34.025c3.016,9.691,22.838,8.614,29.302,7.539c2.371-1.509,21.333,0.861,16.811,14.857
	c-5.171,13.998-20.254,3.23-23.056,0.646c-2.802-2.584-18.745-12.061-34.477-1.938c-15.731,10.124-14.868,37.904,2.155,50.613
	c16.808,12.705,43.095-9.045,43.095-9.045s9.697-6.027,15.516,0.215c4.526,6.029,1.078,11.848,1.078,11.848l-42.792,60.807h17.109
	c12.258-16.535,27.353-37.266,34.518-48.531c11.852-20.025,2.156-28.207-2.801-34.457c-6.465-6.029-21.547-6.457-34.476,2.801
	c-4.823,5.238-36.477,17.805-31.244-15.937c5.387-18.52,24.345-5.599,24.345-5.599s15.3,10.77,25.21,6.893
	c19.393-4.955,17.883-25.628,17.883-25.628s1.51-17.66-19.606-19.168c-18.964,2.152-25.209-2.801-25.857-3.877
	c-1.723-1.508-3.231-12.062,9.05-16.15c13.79-3.877,26.289,13.998,26.289,13.998s11.203,10.984,23.485,6.461
	c12.927-4.523,12.927-9.905,15.515-15.721c3.878-11.414-8.619-20.459-8.619-20.459s-7.758-6.677,10.559-11.629
	c22.192-0.863,11.421,16.367,11.421,16.367s-9.586,21.169,20.468,28.857c2.153,0.43,24.996,7.967,34.047-5.816
	c6.894-10.551,2.37-16.798,2.37-16.798s-4.957-6.89-9.697-14.212c-3.878-10.337,9.049-7.107,9.049-7.107s24.134,11.631,9.267,38.334
	c-18.963,23.473-48.051,9.475-48.051,9.475s-20.9-10.553-35.122-1.938c-26.933,12.923-21.116,48.456-21.116,48.456
	s3.663,28.645,23.701,25.627c19.178-2.801,22.196-17.441,21.551-23.688c-0.647-6.246,2.368-13.999,2.368-13.999
	s2.585-3.446,7.113-0.648c7.974,7.322,7.758,21.538,5.169,27.997c-2.586,6.461-15.299,15.506-22.41,23.906
	c-7.111,8.398-7.973,21.104,3.448,28.209c12.498,7.107,21.333,2.371,29.089-2.156c7.761-4.52,10.772-7.967,24.78-31.871
	c14.006-23.906,27.365-19.596,37.063-14.857c9.694,4.307,20.467,18.734,23.703,21.318c3.23,2.586,15.73,23.906-1.511,30.797
	c-17.237,6.896-19.394-17.441-19.825-21.965c-0.432-4.525-3.447-23.045-20.9-19.381c-23.055,6.891-22.407,31.441-22.622,36.396
	c-0.215,4.949,6.247,38.115,37.275,43.932c26.719,3.877,49.126-6.676,59.472-27.996c14.002-24.117,1.509-55.773-10.131-65.688
	c-19.395-15.938-18.313-22.181-16.374-23.905c1.937-1.724,8.185-3.444,22.193,19.383c7.755,22.184,18.529,20.027,18.529,20.027
	s11.207,0.215,15.948-13.355C394.416,295.592,367.697,282.458,367.697,282.458L367.697,282.458z"/>
<path fill="#A18E5C" d="M134.858,383.531c-1.539-1.131-3.354-0.98-4.641,0.965c-1.42,2.422-1.434,7.563-1.434,7.563
	s5.331-2.137,6.656-3.861C136.759,386.475,136.395,384.662,134.858,383.531z M142.901,371.883c-1.54-1.129-3.354-0.982-4.643,0.965
	c-1.42,2.422-1.433,7.563-1.433,7.563s5.329-2.137,6.653-3.861C144.805,374.824,144.442,373.016,142.901,371.883L142.901,371.883z
	 M151.22,361.066c-1.539-1.135-3.354-0.986-4.641,0.961c-1.422,2.42-1.432,7.563-1.432,7.563s5.328-2.137,6.654-3.861
	C153.124,364.006,152.759,362.199,151.22,361.066z M159.543,348.863c-1.54-1.133-3.354-0.986-4.643,0.963
	c-1.42,2.422-1.433,7.563-1.433,7.563s5.329-2.139,6.655-3.863C161.446,351.805,161.081,349.996,159.543,348.863L159.543,348.863z
	 M167.192,335.771c-1.706-0.861-3.473-0.422-4.42,1.709c-1.004,2.621-0.177,7.693-0.177,7.693s4.906-2.979,5.934-4.895
	C169.552,338.365,168.895,336.639,167.192,335.771L167.192,335.771z M165.656,320.389c-1.902,0.182-3.158,1.5-2.821,3.811
	c0.552,2.754,3.965,6.594,3.965,6.594s2.554-5.139,2.394-7.309C169.039,321.314,167.557,320.209,165.656,320.389L165.656,320.389z
	 M151.485,315.012c-0.363,1.877,0.548,3.451,2.859,3.781c2.798,0.246,7.445-1.947,7.445-1.947s-4.213-3.896-6.34-4.355
	C153.326,312.029,151.848,313.139,151.485,315.012L151.485,315.012z M139.256,315.264c-2.036,0.76-2.687,2.49-1.981,4.264
	c0.708,1.775,2.325,2.613,4.448,1.641c2.488-1.303,5.221-5.654,5.221-5.654S141.293,314.5,139.256,315.264L139.256,315.264z
	 M134.06,322.1c0,0-5.736-0.262-7.656,0.756c-1.922,1.021-2.339,2.82-1.405,4.488c0.934,1.666,2.647,2.287,4.621,1.041
	C131.92,326.771,134.06,322.1,134.06,322.1z M112.997,326.484c-2.146,0.344-3.122,1.91-2.777,3.791
	c0.343,1.879,1.766,3.02,4.038,2.48c2.693-0.789,6.228-4.521,6.228-4.521S115.145,326.137,112.997,326.484z M98.479,322.605
	c-1.266,1.436-1.284,3.256,0.542,4.713c2.284,1.629,7.401,2.104,7.401,2.104s-1.647-5.5-3.247-6.975
	C101.578,320.973,99.742,321.174,98.479,322.605L98.479,322.605z M97.805,311.838c-0.383-2.139-1.966-3.092-3.839-2.717
	c-1.875,0.377-2.989,1.816-2.416,4.08c0.833,2.68,4.622,6.152,4.622,6.152S98.187,313.979,97.805,311.838z M97.663,298.936
	c0.536-2.107-0.514-3.625-2.376-4.059c-1.862-0.432-3.472,0.422-3.883,2.721c-0.347,2.785,1.671,7.515,1.671,7.515
	S97.129,301.043,97.663,298.936z M105.443,284.43c-1.21-1.475-3.008-1.783-4.735-0.213c-1.978,1.995-3.261,6.973-3.261,6.973
	s5.691-0.752,7.402-2.095C106.557,287.752,106.654,285.91,105.443,284.43z M120.38,285.209c0.275-1.889-0.706-3.424-3.031-3.645
	c-2.804-0.116-7.352,2.285-7.352,2.285s4.389,3.705,6.532,4.063C118.675,288.274,120.104,287.102,120.38,285.209z M128.285,293.165
	c1.752,1.287,3.553,0.883,4.654-0.682c1.099-1.563,0.915-3.375-1.064-4.619c-2.452-1.367-7.591-1.272-7.591-1.272
	S126.532,291.875,128.285,293.165L128.285,293.165z M146.526,296.524c0.397-1.869-0.482-3.465-2.788-3.836
	c-2.792-0.299-7.482,1.799-7.482,1.799s4.136,3.981,6.253,4.481C144.625,299.467,146.128,298.393,146.526,296.524z M154.986,288.731
	c-2.021,1.951-3.414,6.899-3.414,6.899s5.708-0.623,7.446-1.929c1.742-1.305,1.876-3.146,0.698-4.65
	C158.536,287.545,156.746,287.201,154.986,288.731L154.986,288.731z M165.124,278.292c0.34-2.148-0.844-3.564-2.738-3.826
	c-1.892-0.258-3.42,0.737-3.619,3.064c-0.093,2.806,2.352,7.33,2.352,7.33S164.782,280.438,165.124,278.292z M153.644,263.188
	c-1.529,1.146-1.918,2.924-0.428,4.723c1.903,2.063,6.82,3.568,6.82,3.568s-0.494-5.719-1.759-7.488
	C157.012,262.223,155.172,262.045,153.644,263.188z M139.135,262.958c0.051,1.91,1.279,3.255,3.609,3.074
	c2.785-0.363,6.853-3.505,6.853-3.505s-4.955-2.9-7.13-2.889C140.289,259.649,139.082,261.046,139.135,262.958L139.135,262.958z
	 M124.989,262.958c0.052,1.91,1.279,3.255,3.608,3.074c2.784-0.363,6.854-3.505,6.854-3.505s-4.956-2.9-7.13-2.889
	C126.145,259.647,124.938,261.046,124.989,262.958L124.989,262.958z M114.139,254.055c-1.379,1.32-1.549,3.135,0.147,4.738
	c2.138,1.818,7.201,2.721,7.201,2.721s-1.183-5.619-2.649-7.223C117.367,252.688,115.519,252.733,114.139,254.055z M119.064,243.334
	c0.689-2.063-0.247-3.654-2.072-4.223c-1.823-0.568-3.49,0.162-4.073,2.424c-0.553,2.753,1.109,7.617,1.109,7.617
	S118.371,245.399,119.064,243.334L119.064,243.334z M129.371,231.27c-0.877-1.696-2.57-2.373-4.586-1.196
	c-2.348,1.538-4.641,6.14-4.641,6.14s5.722,0.451,7.674-0.505C129.772,234.75,130.248,232.965,129.371,231.27z M143.583,231.291
	c0.361-1.875-0.55-3.453-2.863-3.778c-2.799-0.242-7.445,1.955-7.445,1.955s4.217,3.895,6.346,4.35
	C141.747,234.272,143.221,233.167,143.583,231.291z M154.717,239.483c1.499-1.188,1.836-2.978,0.296-4.732
	c-1.962-2.01-6.917-3.38-6.917-3.38s0.652,5.703,1.968,7.437C151.378,240.542,153.22,240.667,154.717,239.483z M165.649,249.425
	c1.356-1.345,1.494-3.161-0.231-4.733c-2.173-1.781-7.249-2.592-7.249-2.592s1.283,5.596,2.781,7.174
	C162.446,250.85,164.292,250.772,165.649,249.425L165.649,249.425z M179.918,251.506c-0.049-1.908-1.276-3.256-3.604-3.079
	c-2.785,0.36-6.856,3.498-6.856,3.498s4.952,2.905,7.126,2.896C178.759,254.813,179.967,253.417,179.918,251.506L179.918,251.506z
	 M190.628,246.421c1.369-1.688,1.052-3.509-0.458-4.683c-1.51-1.17-3.328-1.07-4.665,0.844c-1.483,2.383-1.629,7.521-1.629,7.521
	S189.257,248.11,190.628,246.421L190.628,246.421z M185.704,231.836c1.344,2.466,5.747,5.123,5.747,5.123s0.914-5.669,0.118-7.691
	c-0.799-2.024-2.537-2.643-4.301-1.906C185.502,228.1,184.695,229.731,185.704,231.836z M183.218,225.772
	c0,0-0.608-5.709-1.908-7.453c-1.299-1.744-3.141-1.883-4.649-0.709c-1.507,1.176-1.86,2.963-0.333,4.729
	C178.273,224.362,183.218,225.772,183.218,225.772z M187.363,206.602c-1.092-1.567-2.856-2.014-4.703-0.584
	c-2.127,1.834-3.799,6.695-3.799,6.695s5.733-0.301,7.542-1.507C188.216,210,188.456,208.167,187.363,206.602z M199.464,206.76
	c2.161-0.246,3.209-1.767,2.951-3.662c-0.255-1.895-1.626-3.097-3.919-2.666c-2.727,0.663-6.434,4.227-6.434,4.227
	S197.301,207.003,199.464,206.76z M212.467,208.833c1.906,1.047,3.639,0.41,4.526-1.283c0.883-1.694,0.461-3.467-1.662-4.44
	c-2.609-1.036-7.692-0.263-7.692-0.263S210.561,207.788,212.467,208.833L212.467,208.833z M218.83,220.633
	c1.842,0.512,3.487-0.267,4-2.547c0.471-2.768-1.341-7.581-1.341-7.581s-4.225,3.888-4.852,5.968
	C216.008,218.559,216.992,220.122,218.83,220.633L218.83,220.633z M219.717,232.233c-0.207-2.799-3.119-7.035-3.119-7.035
	s-3.169,4.787-3.277,6.96c-0.109,2.173,1.221,3.452,3.13,3.509C218.359,235.721,219.771,234.567,219.717,232.233L219.717,232.233z
	 M222.52,247.083c1.733,1.313,3.542,0.935,4.663-0.61c1.12-1.548,0.963-3.361-0.994-4.635c-2.433-1.404-7.573-1.384-7.573-1.384
	S220.787,245.768,222.52,247.083L222.52,247.083z M241.941,249.555c0.268-1.892-0.718-3.422-3.044-3.635
	c-2.804-0.107-7.342,2.311-7.342,2.311s4.399,3.687,6.544,4.039C240.249,252.625,241.667,251.446,241.941,249.555L241.941,249.555z
	 M254.887,249.6c1.98-0.91,2.496-2.683,1.663-4.399c-0.836-1.718-2.511-2.435-4.556-1.312c-2.387,1.481-4.794,6.023-4.794,6.023
	S252.914,250.508,254.887,249.6L254.887,249.6z M255.232,233.891c0.595,2.744,4.066,6.536,4.066,6.536s2.477-5.18,2.285-7.346
	c-0.194-2.167-1.688-3.252-3.587-3.043C256.097,230.249,254.856,231.584,255.232,233.891z M249.675,217.26
	c-1.677,0.917-2.313,2.624-1.092,4.614c1.591,2.313,6.244,4.5,6.244,4.5s0.324-5.731-0.681-7.664
	C253.143,216.78,251.351,216.344,249.675,217.26z M254.8,204.083c-1.386-1.318-3.2-1.403-4.726,0.366
	c-1.718,2.221-2.385,7.318-2.385,7.318s5.556-1.439,7.088-2.982C256.316,207.246,256.183,205.403,254.8,204.083L254.8,204.083z
	 M265.545,207.391c2.071,0.659,3.652-0.3,4.192-2.133s-0.216-3.491-2.485-4.036c-2.763-0.513-7.6,1.224-7.6,1.224
	S263.474,206.731,265.545,207.391L265.545,207.391z M280.748,215.764c1.51-1.166,1.874-2.953,0.355-4.727
	c-1.935-2.035-6.873-3.469-6.873-3.469s0.578,5.711,1.87,7.461C277.396,216.784,279.236,216.93,280.748,215.764z M281.939,226.875
	c0.401,2.139,1.995,3.073,3.864,2.684c1.871-0.393,2.975-1.844,2.378-4.102c-0.856-2.674-4.674-6.114-4.674-6.114
	S281.54,224.737,281.939,226.875z M210.479,304.705c-1.856-0.455-3.478,0.377-3.917,2.668c-0.385,2.779,1.572,7.535,1.572,7.535
	s4.103-4.018,4.668-6.115C213.367,306.688,212.336,305.16,210.479,304.705L210.479,304.705z M208.783,292.948
	c-0.384,2.781,1.573,7.535,1.573,7.535s4.103-4.017,4.669-6.116c0.566-2.101-0.469-3.634-2.324-4.089
	C210.845,289.826,209.223,290.66,208.783,292.948L208.783,292.948z M221.214,287.223c2.021-0.805,2.629-2.55,1.882-4.307
	c-0.747-1.759-2.384-2.559-4.484-1.538c-2.457,1.356-5.09,5.774-5.09,5.774S219.194,288.03,221.214,287.223z M226.868,285.024
	c0,0,1.446,5.556,2.992,7.086c1.543,1.533,3.386,1.396,4.701,0.014c1.314-1.385,1.398-3.204-0.373-4.727
	C231.966,285.688,226.869,285.024,226.868,285.024L226.868,285.024z M236.286,296c0,0-2.17,5.316-1.853,7.466
	c0.317,2.152,1.873,3.15,3.756,2.828c1.886-0.316,3.044-1.723,2.537-4.004C239.974,299.587,236.286,296,236.286,296L236.286,296z
	 M234.982,317.324c-0.377,2.141,0.784,3.576,2.671,3.869c1.892,0.293,3.435-0.68,3.669-3.004c0.14-2.803-2.224-7.363-2.224-7.363
	S235.362,315.184,234.982,317.324L234.982,317.324z M233.691,332.828c1.54-2.352,1.806-7.482,1.806-7.482s-5.428,1.869-6.837,3.527
	s-1.134,3.484,0.349,4.688C230.488,334.771,232.309,334.711,233.691,332.828L233.691,332.828z M223.047,342.77
	c1.816-2.141,2.711-7.201,2.711-7.201s-5.616,1.188-7.217,2.658c-1.604,1.473-1.554,3.314-0.232,4.695
	C219.633,344.303,221.449,344.469,223.047,342.77L223.047,342.77z M210.332,354.33c1.695,0.883,3.468,0.463,4.441-1.662
	c1.036-2.611,0.264-7.691,0.264-7.691s-4.941,2.924-5.988,4.826C208.001,351.709,208.637,353.445,210.332,354.33z M208.933,359.031
	c0,0-0.211,5.734,0.828,7.645c1.04,1.91,2.842,2.313,4.5,1.365c1.66-0.949,2.26-2.666,1.002-4.635
	C213.626,361.131,208.933,359.031,208.933,359.031z M224.661,367.158c-2.761,0.516-6.649,3.879-6.649,3.879s5.11,2.619,7.278,2.49
	c2.172-0.135,3.297-1.596,3.141-3.498C228.281,368.123,226.977,366.85,224.661,367.158L224.661,367.158z M236.27,362.703
	c-2.167,1.785-3.945,6.604-3.945,6.604s5.738-0.172,7.578-1.334c1.838-1.162,2.118-2.988,1.062-4.584
	C239.903,361.801,238.147,361.314,236.27,362.703z M250.629,353.113c-1.494-1.193-3.315-1.117-4.674,0.781
	c-1.516,2.365-1.727,7.498-1.727,7.498s5.405-1.926,6.799-3.596C252.415,356.123,252.12,354.305,250.629,353.113z M258.67,341.186
	c-1.494-1.189-3.315-1.115-4.675,0.787c-1.514,2.365-1.725,7.498-1.725,7.498s5.406-1.928,6.802-3.596
	C260.46,344.201,260.163,342.379,258.67,341.186z M261.482,330.043c-1.514,2.367-1.727,7.498-1.727,7.498s5.407-1.928,6.801-3.596
	c1.393-1.668,1.098-3.492-0.396-4.689C264.663,328.07,262.846,328.146,261.482,330.043z M275.078,318.965
	c-1.384-1.316-3.201-1.402-4.725,0.367c-1.715,2.219-2.384,7.318-2.384,7.318s5.555-1.439,7.091-2.984
	C276.594,322.123,276.458,320.279,275.078,318.965z M287.497,313.617c-0.717-1.771-2.339-2.6-4.455-1.615
	c-2.482,1.313-5.192,5.684-5.192,5.684s5.659,0.979,7.689,0.207C287.571,317.123,288.212,315.389,287.497,313.617L287.497,313.617z
	 M300.881,315.371c0.521-1.838-0.252-3.488-2.528-4.012c-2.766-0.48-7.586,1.303-7.586,1.303s3.865,4.248,5.943,4.885
	C298.791,318.186,300.361,317.207,300.881,315.371L300.881,315.371z M307.927,323.475c1.777,1.252,3.571,0.816,4.641-0.766
	c1.068-1.582,0.845-3.393-1.154-4.6c-2.478-1.322-7.615-1.129-7.615-1.129S306.151,322.217,307.927,323.475L307.927,323.475z
	 M323.105,331.77c1.245-1.445,1.244-3.271-0.603-4.703c-2.3-1.607-7.428-2.021-7.428-2.021s1.708,5.479,3.328,6.936
	C320.021,333.439,321.855,333.215,323.105,331.77L323.105,331.77z M332.667,341.949c1.437-1.254,1.689-3.063,0.067-4.738
	c-2.059-1.912-7.072-3.041-7.072-3.041s0.925,5.67,2.323,7.334C329.381,343.172,331.229,343.207,332.667,341.949L332.667,341.949z
	 M339.315,354.123c1.787-0.674,2.654-2.273,1.724-4.414c-1.255-2.516-5.553-5.328-5.553-5.328s-1.119,5.629-0.397,7.68
	C335.81,354.113,337.526,354.797,339.315,354.123L339.315,354.123z M339.723,367.99c1.892,0.248,3.413-0.764,3.595-3.086
	c0.067-2.809-2.404-7.314-2.404-7.314s-3.631,4.447-3.955,6.598C336.631,366.338,337.827,367.744,339.723,367.99L339.723,367.99z
	 M331.707,375.377c-1.398,1.666-1.116,3.488,0.374,4.688c1.491,1.197,3.311,1.131,4.68-0.764c1.526-2.354,1.76-7.488,1.76-7.488
	S333.108,373.711,331.707,375.377z M321.612,380.219c-2.164,0.182-3.257,1.668-3.06,3.572c0.203,1.902,1.533,3.145,3.839,2.781
	c2.749-0.58,6.557-4.029,6.557-4.029S323.779,380.039,321.612,380.219L321.612,380.219z M310.639,376.051
	c-1.656-1.408-3.482-1.131-4.688,0.348c-1.205,1.48-1.149,3.303,0.735,4.686c2.348,1.537,7.484,1.799,7.484,1.799
	S312.298,377.461,310.639,376.051L310.639,376.051z M301.081,362.684c-1.883,0.332-3.032,1.742-2.519,4.02
	c0.765,2.701,4.467,6.268,4.467,6.268s2.147-5.322,1.819-7.477C304.523,363.346,302.962,362.357,301.081,362.684L301.081,362.684z
	 M299.98,359.104c0,0,2.148-5.322,1.819-7.475c-0.327-2.152-1.888-3.141-3.767-2.811c-1.884,0.326-3.033,1.738-2.52,4.018
	C296.276,355.533,299.98,359.104,299.98,359.104L299.98,359.104z M296.667,345.375c0,0-1.405-5.564-2.938-7.109
	c-1.529-1.545-3.374-1.424-4.701-0.053c-1.328,1.377-1.429,3.197,0.335,4.73C291.573,344.676,296.667,345.375,296.667,345.375
	L296.667,345.375z M280.185,346.58c2.374-1.508,4.728-6.078,4.728-6.078s-5.714-0.527-7.681,0.402
	c-1.966,0.93-2.465,2.709-1.615,4.414C276.468,347.031,278.153,347.729,280.185,346.58z M268.005,353.947
	c-0.764,2.033,0.115,3.662,1.919,4.293c1.806,0.633,3.499-0.041,4.156-2.283c0.651-2.73-0.844-7.65-0.844-7.65
	S268.768,351.91,268.005,353.947L268.005,353.947z M272.277,368.613c-0.325-2.795-3.409-6.9-3.409-6.9s-2.967,4.912-2.988,7.084
	c-0.02,2.178,1.362,3.398,3.274,3.379C271.063,372.154,272.424,370.943,272.277,368.613L272.277,368.613z M274.862,381.664
	c-1.189-2.545-5.412-5.471-5.412-5.471s-1.266,5.598-0.601,7.672c0.664,2.066,2.367,2.797,4.171,2.168
	C274.822,385.408,275.735,383.828,274.862,381.664z M274.609,389.764c0,0,0.228,5.738,1.408,7.563
	c1.182,1.826,3.009,2.09,4.593,1.02c1.58-1.07,2.053-2.834,0.646-4.693C279.446,391.498,274.609,389.764,274.609,389.764z
	 M291.413,402.465c-2.397-1.461-7.537-1.563-7.537-1.563s2.043,5.361,3.746,6.717c1.704,1.354,3.518,1.021,4.674-0.496
	C293.453,405.604,293.337,403.787,291.413,402.465z M303.004,406.396c-2.805,0.117-7.133,2.889-7.133,2.889s4.677,3.326,6.846,3.51
	c2.169,0.18,3.492-1.104,3.612-3.014C306.445,407.875,305.339,406.426,303.004,406.396z M316.461,405.527
	c-2.725,0.68-6.404,4.268-6.404,4.268s5.257,2.311,7.413,2.051c2.163-0.258,3.197-1.787,2.928-3.68
	C320.126,406.275,318.753,405.078,316.461,405.527z M329.111,401.43c-2.415,1.432-4.924,5.912-4.924,5.912s5.697,0.723,7.692-0.145
	c1.993-0.861,2.557-2.619,1.757-4.359C332.84,401.102,331.183,400.348,329.111,401.43z M340.415,394.281
	c-2.049,1.924-3.512,6.852-3.512,6.852s5.713-0.543,7.472-1.826c1.76-1.273,1.922-3.117,0.767-4.639
	C343.985,393.145,342.201,392.773,340.415,394.281z M354.058,383.523c-1.511-1.174-3.328-1.07-4.667,0.844
	c-1.479,2.387-1.624,7.521-1.624,7.521s5.381-1.998,6.749-3.688C355.887,386.514,355.569,384.693,354.058,383.523z M358.707,369.605
	c-1.81-0.609-3.496,0.076-4.13,2.328c-0.616,2.738,0.934,7.641,0.934,7.641s4.426-3.654,5.167-5.699
	C361.418,371.834,360.515,370.217,358.707,369.605L358.707,369.605z M358.934,355.096c-1.907-0.064-3.327,1.074-3.294,3.412
	c0.191,2.801,3.073,7.057,3.073,7.057s3.201-4.768,3.326-6.939C362.165,356.455,360.845,355.166,358.934,355.096L358.934,355.096z
	 M354.869,340.551c-1.861,0.434-2.935,1.904-2.296,4.148c0.91,2.658,4.802,6.02,4.802,6.02s1.854-5.434,1.41-7.559
	C358.343,341.025,356.734,340.123,354.869,340.551L354.869,340.551z M351.545,329.289c-1.06-1.9-2.861-2.287-4.515-1.318
	c-1.649,0.961-2.236,2.688-0.958,4.643c1.662,2.266,6.372,4.318,6.372,4.318S352.599,331.191,351.545,329.289z M341.696,318.146
	c-1.302-1.746-3.148-1.877-4.65-0.699c-1.502,1.178-1.849,2.967-0.318,4.729c1.95,2.021,6.896,3.414,6.896,3.414
	S343,319.885,341.696,318.146L341.696,318.146z M332.544,307.881c-1.305-1.738-3.148-1.873-4.649-0.693
	c-1.504,1.176-1.853,2.965-0.322,4.727c1.951,2.021,6.898,3.416,6.898,3.416S333.848,309.623,332.544,307.881z M328.563,296.946
	c-0.172-2.168-1.658-3.27-3.555-3.08c-1.9,0.191-3.154,1.514-2.804,3.824c0.568,2.752,3.996,6.582,3.996,6.582
	S328.731,299.112,328.563,296.946z M337.126,289.44c-0.217-1.899-1.565-3.127-3.865-2.744c-2.739,0.611-6.515,4.1-6.515,4.1
	s5.195,2.449,7.354,2.246C336.269,292.84,337.349,291.337,337.126,289.44z M348.557,297.44c1.196-1.489,1.131-3.311-0.762-4.679
	c-2.357-1.524-7.488-1.763-7.488-1.763s1.9,5.417,3.563,6.816C345.533,299.215,347.36,298.927,348.557,297.44z M356.941,304.467
	c-1.678-2.252-6.409-4.263-6.409-4.263s-0.106,5.742,0.967,7.632c1.072,1.893,2.883,2.258,4.527,1.281
	C357.663,308.141,358.237,306.408,356.941,304.467L356.941,304.467z M363.805,316.111c-1.681-2.252-6.411-4.26-6.411-4.26
	s-0.104,5.744,0.967,7.631c1.075,1.893,2.886,2.258,4.527,1.279C364.528,319.789,365.103,318.061,363.805,316.111z M371.811,325.039
	c-2.569-1.143-7.677-0.57-7.677-0.57s2.729,5.053,4.589,6.178c1.863,1.119,3.621,0.555,4.571-1.104
	C374.243,327.883,373.896,326.094,371.811,325.039z M379.441,320.723c-1.915,2.055-3.044,7.068-3.044,7.068s5.669-0.922,7.336-2.318
	c1.667-1.393,1.705-3.24,0.448-4.68C382.923,319.352,381.12,319.1,379.441,320.723L379.441,320.723z M379.446,310.021
	c0.834,2.684,4.617,6.158,4.617,6.158s2.02-5.375,1.637-7.516c-0.382-2.143-1.962-3.094-3.84-2.721
	C379.991,306.314,378.873,307.758,379.446,310.021z M379.708,302.805c0,0-0.042-5.74-1.161-7.604
	c-1.12-1.863-2.939-2.183-4.558-1.162c-1.616,1.021-2.143,2.764-0.798,4.673C374.928,300.916,379.708,302.805,379.708,302.805z
	 M363.012,291.315c2.376,1.496,7.514,1.67,7.514,1.67s-1.971-5.396-3.652-6.771c-1.681-1.377-3.501-1.07-4.682,0.432
	C361.015,288.153,361.102,289.973,363.012,291.315L363.012,291.315z M357.602,278.077c-1.015-1.926-2.808-2.354-4.483-1.43
	c-1.676,0.924-2.298,2.635-1.072,4.619c1.605,2.303,6.265,4.471,6.265,4.471S358.613,280.002,357.602,278.077z M353.174,272.6
	c0,0,2.717-5.057,2.626-7.23c-0.089-2.174-1.532-3.326-3.438-3.207c-1.903,0.119-3.203,1.396-2.94,3.715
	C349.884,268.649,353.174,272.6,353.174,272.6L353.174,272.6z M350.712,250.491c-0.858-1.998-2.617-2.561-4.354-1.768
	c-1.742,0.795-2.493,2.451-1.424,4.522c1.428,2.421,5.904,4.937,5.904,4.937S351.572,252.487,350.712,250.491z M336.003,251.493
	c2.75-0.579,6.559-4.03,6.559-4.03s-5.164-2.503-7.333-2.323c-2.166,0.18-3.257,1.668-3.062,3.57
	C332.366,250.61,333.696,251.854,336.003,251.493L336.003,251.493z M327.411,257.95c1.621-2.295,2.069-7.415,2.069-7.415
	s-5.49,1.678-6.957,3.282c-1.47,1.606-1.253,3.441,0.181,4.699C324.142,259.772,325.964,259.78,327.411,257.95L327.411,257.95z
	 M317.595,271.723c1.769,0.725,3.495,0.139,4.27-2.063c0.792-2.694-0.447-7.683-0.447-7.683s-4.648,3.363-5.517,5.357
	C315.034,269.331,315.829,270.997,317.595,271.723L317.595,271.723z M315.079,282.817c1.159-2.557,0.644-7.67,0.644-7.67
	s-5.078,2.677-6.219,4.53c-1.14,1.851-0.588,3.616,1.063,4.581C312.212,285.223,314.005,284.889,315.079,282.817z M304.846,293.809
	c1.936-2.035,3.116-7.039,3.116-7.039s-5.673,0.869-7.355,2.25c-1.682,1.377-1.737,3.226-0.495,4.674
	C301.348,295.145,303.15,295.414,304.846,293.809z M291.954,300.98c2.462-1.351,5.114-5.757,5.114-5.757s-5.67-0.902-7.693-0.103
	c-2.023,0.799-2.638,2.54-1.896,4.301C288.214,301.186,289.85,301.992,291.954,300.98L291.954,300.98z M276.163,298.79
	c-2.14,0.377-3.094,1.958-2.727,3.833c0.373,1.873,1.809,2.988,4.074,2.426c2.688-0.826,6.169-4.609,6.169-4.609
	S278.307,298.413,276.163,298.79z M267.58,295.55c-1.411-1.655-3.257-1.671-4.685-0.403c-1.431,1.271-1.664,3.08-0.022,4.742
	c2.072,1.894,7.1,2.974,7.1,2.974S268.994,297.208,267.58,295.55L267.58,295.55z M269.092,283.764
	c-1.352-1.353-3.166-1.486-4.735,0.243c-1.772,2.175-2.572,7.255-2.572,7.255s5.592-1.295,7.167-2.795
	C270.525,286.962,270.442,285.117,269.092,283.764z M280.083,282.018c1.925-1.012,2.346-2.811,1.424-4.481
	c-0.926-1.67-2.637-2.295-4.619-1.065c-2.302,1.607-4.462,6.271-4.462,6.271S278.154,283.033,280.083,282.018L280.083,282.018z
	 M284.88,276.714c0,0,5.669-0.892,7.348-2.276c1.68-1.388,1.727-3.232,0.479-4.678c-1.248-1.447-3.051-1.708-4.74-0.097
	C286.037,271.707,284.88,276.714,284.88,276.714L284.88,276.714z M302.05,262.87c1.35-1.706,1.012-3.521-0.513-4.676
	c-1.522-1.153-3.345-1.033-4.655,0.896c-1.455,2.401-1.544,7.541-1.544,7.541S300.701,264.576,302.05,262.87L302.05,262.87z
	 M306.874,247.985c0.71-2.055-0.207-3.656-2.026-4.244c-1.82-0.586-3.496,0.127-4.1,2.381c-0.579,2.746,1.031,7.627,1.031,7.627
	S306.164,250.042,306.874,247.985z M312.439,232.542c-1.47-1.225-3.289-1.191-4.691,0.675c-1.569,2.33-1.897,7.46-1.897,7.46
	s5.448-1.803,6.88-3.441C314.161,235.591,313.905,233.764,312.439,232.542L312.439,232.542z M323.654,232.809
	c2.06-0.703,2.756-2.412,2.099-4.207c-0.654-1.793-2.25-2.679-4.396-1.767c-2.526,1.229-5.382,5.506-5.382,5.506
	S321.594,233.509,323.654,232.809z M336.333,219.944c-1.287-1.412-3.097-1.623-4.741,0.035c-1.868,2.099-2.889,7.136-2.889,7.136
	s5.644-1.048,7.281-2.48C337.62,223.205,337.619,221.354,336.333,219.944z M344.413,211.487c1.175-1.829,0.66-3.604-0.969-4.602
	c-1.628-0.999-3.43-0.699-4.545,1.35c-1.211,2.533-0.794,7.658-0.794,7.658S343.237,213.317,344.413,211.487L344.413,211.487z
	 M351.069,199.003c1.175-1.829,0.662-3.603-0.969-4.6c-1.628-1-3.428-0.7-4.54,1.351c-1.214,2.531-0.795,7.655-0.795,7.655
	S349.894,200.834,351.069,199.003L351.069,199.003z M357.17,186.318c1.177-1.83,0.66-3.604-0.967-4.602
	c-1.629-0.999-3.431-0.7-4.546,1.351c-1.212,2.533-0.791,7.657-0.791,7.657S355.995,188.146,357.17,186.318L357.17,186.318z
	 M282.116,241.622c-0.419,2.135,0.715,3.594,2.598,3.919c1.883,0.327,3.442-0.615,3.728-2.933c0.191-2.801-2.088-7.407-2.088-7.407
	S282.535,239.485,282.116,241.622L282.116,241.622z M280.728,256.848c1.434-2.416,1.472-7.557,1.472-7.557s-5.342,2.111-6.672,3.83
	c-1.336,1.717-0.977,3.529,0.558,4.668C277.615,258.927,279.432,258.79,280.728,256.848L280.728,256.848z M263.536,265.534
	c0.887,1.691,2.586,2.353,4.596,1.162c2.335-1.557,4.593-6.174,4.593-6.174s-5.723-0.412-7.671,0.562
	C263.112,262.052,262.647,263.842,263.536,265.534L263.536,265.534z M251.264,265.237c-2.165,0.213-3.237,1.718-3.009,3.615
	c0.227,1.896,1.575,3.121,3.877,2.727c2.739-0.619,6.495-4.125,6.495-4.125S253.427,265.026,251.264,265.237z M233.143,266.879
	c-0.397,1.867,0.483,3.463,2.788,3.833c2.794,0.298,7.484-1.803,7.484-1.803s-4.139-3.979-6.258-4.479
	C235.04,263.936,233.54,265.011,233.143,266.879L233.143,266.879z M223.732,259.875c-2.026-0.791-3.663,0.066-4.318,1.861
	c-0.657,1.793-0.007,3.498,2.222,4.187c2.723,0.687,7.663-0.737,7.663-0.737S225.758,260.667,223.732,259.875L223.732,259.875z
	 M215.789,260.555c0,0-4.348-3.748-6.489-4.133c-2.14-0.384-3.581,0.773-3.877,2.66c-0.295,1.889,0.667,3.434,2.99,3.678
	C211.218,262.91,215.788,260.555,215.789,260.555L215.789,260.555z M201.088,258.708c0,0-5.68-0.823-7.692,0.004
	c-2.012,0.827-2.603,2.577-1.837,4.327c0.765,1.751,2.411,2.535,4.498,1.493C198.498,263.147,201.088,258.708,201.088,258.708z
	 M181.893,273.598c1.574,1.077,3.388,0.868,4.606-1.125c1.336-2.471,1.17-7.606,1.17-7.606s-5.254,2.319-6.52,4.088
	C179.887,270.723,180.313,272.52,181.893,273.598L181.893,273.598z M174.99,282.737c-0.78,2.029,0.087,3.664,1.889,4.307
	c1.799,0.648,3.497-0.014,4.171-2.25c0.67-2.727-0.783-7.657-0.783-7.657S175.771,280.706,174.99,282.737z M179.57,298.172
	c-0.385-2.781-3.555-6.826-3.555-6.826s-2.864,4.975-2.838,7.15c0.026,2.177,1.432,3.373,3.344,3.308
	C178.431,301.74,179.765,300.5,179.57,298.172z M176.954,306.4c0,0-1.232,5.605-0.551,7.674c0.68,2.064,2.383,2.781,4.183,2.145
	c1.801-0.637,2.702-2.217,1.813-4.377C181.195,309.303,176.954,306.4,176.954,306.4z M190.587,320.688
	c-2.546-1.18-7.668-0.699-7.668-0.699s2.64,5.102,4.485,6.254c1.845,1.158,3.612,0.617,4.59-1.023
	C192.971,323.574,192.649,321.779,190.587,320.688L190.587,320.688z M200.928,317.828c-2.218,1.717-4.146,6.484-4.146,6.484
	s5.74,0.004,7.613-1.104c1.873-1.109,2.208-2.924,1.2-4.547C204.588,317.039,202.849,316.498,200.928,317.828z"/>
<text transform="matrix(1 0 0 1 457.8076 265.6392)" fill="#FFFFFF" font-family="'MSReferenceSansSerif-Bold'" font-size="78">CONNECTING</text>
<text transform="matrix(1 0 0 1 457.8076 345.6367)" fill="#FFFFFF" font-family="'MSReferenceSansSerif-Bold'" font-size="78">ALL THE DOTS</text>
<text transform="matrix(1 0 0 1 457.8076 391.0586)" fill="#FFFFFF" font-family="'MSReferenceSansSerif-Bold'" font-size="31">MAKE SURE YOU STAY CONNECTED</text>
</svg>
