<?xml version="1.0" encoding="utf-8"?>
<!-- Generator: Adobe Illustrator 16.0.3, SVG Export Plug-In . SVG Version: 6.00 Build 0)  -->
<!DOCTYPE svg PUBLIC "-//W3C//DTD SVG 1.1//EN" "http://www.w3.org/Graphics/SVG/1.1/DTD/svg11.dtd">
<svg version="1.1" id="Layer_1" xmlns="http://www.w3.org/2000/svg" xmlns:xlink="http://www.w3.org/1999/xlink" x="0px" y="0px"
	 width="1450px" height="600px" viewBox="0 0 1450 600" enable-background="new 0 0 1450 600" xml:space="preserve">
<path fill="#2B2B2B" d="M475.181,222.917c0,0,5.052-36.8-35.693-56.325c-45.435-25.034-137.221-77.88-137.221-77.88
	s-24.578-19.142-57.022-0.465c-33.438,19.252-145.564,83.908-145.564,83.908s-26.889,13.907-26.889,49.604v159.009
	c0,0-2.317,29.668,25.962,47.746c28.278,18.078,140.464,79.271,140.464,79.271s31.848,25.025,64.638,3.244l139.397-79.515
	c0,0,34.813-13.345,31.927-57.435L475.181,222.917L475.181,222.917z"/>
<path fill="#D63737" d="M419.911,334.959c4.12-2.938,7.507-8.084,9.887-12.572l-0.025-0.09l0.245-0.322
	c2.332-4.477,3.635-8.182,3.635-8.182l0.021,0.369c2.578-11.234-3.556-24.621-12.95-27.185c0.214-10.123,2.154-23.043-19.178-26.918
	c1.076-29.503-16.593-35.965-23.057-38.765c-6.465-2.799-12.28-5.815-12.28-5.815s-3.299-5.375-9.807-8.218v0.05
	c0,0-9.586-4.524-18.313,4.74c4.661-5.142,7.58-6.387,8.767-6.688c-5.903-7.274-14.261-12.242-26.044-9.425
	c1.954,1.544,6.524,5.465,10.436,15.109c0.764,1.59,1.386,3.252,1.783,4.99c-0.567-1.814-1.169-3.473-1.783-4.99
	c-6.265-12.991-23.106-20.862-23.106-20.862l0.098-0.339c-10.477-3.86-20.14-2.953-28.647,1.299
	c-10.56-6.676-23.056-4.308-31.029,0.215c-18.532-6.029-29.952,1.939-39.216,7.753c-13.193-1.087-21.405,1.86-27.131,6.347
	c0.186-0.077,0.231-0.08,0.09,0.022c-1.187,0.861-7.542,7.863-2.156,9.91c8.768,2.504,18.196-5.237,21.145-7.938
	c0.57-0.579,0.94-0.896,0.94-0.896s-0.338,0.346-0.94,0.896c-3.065,3.119-11.896,13.818,0.186,23.445
	c-27.148-22.188-39.215-14.219-39.215-14.219l0.564-0.666c-6.546,2.489-10.109,7.572-14.676,13.463
	c-7.655,4.35-13.527,9.957-17.188,17.03c1.548-2.345,2.692-3.909,2.318-2.79c-0.971,2.908-9.587,11.848-1.725,33.5
	c-3.951-5.35-5.699-14.902-6.307-19.117c-8.216,5.789-8.713,9.674-7.917,19.613c-5.169,5.385-4.956,14.859-0.647,22.613
	c-3.231,18.953,5.172,28.212,9.91,30.15c1.725,5.6,7.327,16.799,27.366,14.428c1.507,3.441,15.514,11.201,32.966,4.525
	c19.393-7.76,11.635,5.813,11.635,5.813s4.652,12.746,26.576,11.162c6.174-9.33-17.154-25.172-14.079-23.156
	c2.982,1.951,12.241,11.438,23.383-4.643c0.503-0.813,1.03-1.631,1.613-2.475c-0.542,0.891-1.078,1.701-1.613,2.475
	c-11.933,19.229-3.021,31.027-3.021,31.027l-0.301,0.029c3.387,4.963,10.901,13.514,23.734,16.207l-0.753-0.35
	c0,0,19.067,3.393,26.749-2.748c-1.774,4.295-11.146,5.771-14.514,6.125c8.085,11.992,20.336,16.732,31.352,15.252
	c-3.205-6.277-6.639-27.211-4.638-17.584c2.18,10.502,12.688,25.207,12.688,25.207l-0.039,0.021
	c10.031,11.244,26.201,14.847,37.23,9.332c19.833,10.205,54.869-4.983,62.888-37.59l-0.292,0.036c0,0,4.523-19.394-0.402-29.247
	c2.985,3.934,5.278,12.829,5.024,18.37c16.019-5.854,24.127-29.092,20.644-46.471C427.479,329.998,421.734,333.791,419.911,334.959
	L419.911,334.959z M143.97,317.273c3.67-8.494,0.364-17.087-1.426-20.708c-0.34-0.57-0.669-1.155-0.973-1.785
	c0,0,0.412,0.652,0.973,1.785c5.087,8.484,13.948,10,18.64,10.15c1.517-0.084,2.619-0.029,3.012-0.088
	c0.493-0.063-0.793,0.16-3.012,0.088C156.672,306.969,148.45,308.412,143.97,317.273L143.97,317.273z M181.972,346.057
	c0,0,10.45-24.664-20.041-3.016c0,0,15.191-17.344,23.919-11.742C190.375,336.467,181.972,346.057,181.972,346.057L181.972,346.057z
	 M168.13,247.627c0,0-4.285-0.242-1.94-3.23c6.062-4.605,21.495,9.611,21.495,9.611C179.2,246.737,168.13,247.627,168.13,247.627
	L168.13,247.627z M189.622,305.016c9.696-3.018,11.634-13.25,11.634-13.25c-1.186,8.295-0.324,12.927,3.771,20.576
	C202.444,309,197.489,304.479,189.622,305.016z M216.925,260.11c-4.705,3.346-9.357,9.748-10.279,18.621
	c1.093-14.22-7.628-19.53-8.978-20.266l-0.181-0.094l0.181,0.094C205.864,262.798,209.577,264.286,216.925,260.11
	c0.78-0.553,1.558-1.031,2.326-1.414C218.427,259.233,217.665,259.69,216.925,260.11z M278.29,195.791
	c-5.281,10.771-7.65,13.895-7.544,21.113c0.107,7.217,5.279,14.971,9.697,17.88c1.725,1.616,3.02,3.878,3.02,3.878
	s-8.403-12.495-18.854-3.016c12.178-21.006-0.97-33.5-5.926-39.962C258.681,195.683,270.426,210.005,278.29,195.791z
	 M238.334,230.808c-0.041-0.431-0.086-0.854-0.122-1.304C238.211,229.502,238.28,229.99,238.334,230.808
	c0.962,9.842,3.266,15.577,10.819,19.81c1.003,0.456,1.797,0.888,2.31,1.185c-0.826-0.381-1.582-0.778-2.31-1.185
	c-4.055-1.843-11.617-4.101-18.699,0.216C238.612,245.781,238.596,234.612,238.334,230.808L238.334,230.808z M233.902,281.96
	c-8.834,11.743-3.341,31.022-3.341,31.022s-3.877-4.848-2.584-17.986c1.293-13.143-3.665-16.912-3.665-16.912
	s2.694,2.154,14.546-3.77c11.851-5.924,16.159-1.617,16.159-1.617S242.737,270.223,233.902,281.96z M242.305,333.129
	c14.975-6.248,14.763-30.697,14.763-30.697s1.722-6.25,4.631-0.215C267.409,323.977,242.305,333.129,242.305,333.129z
	 M266.007,354.779c-4.203,5.602-6.788,3.121-6.788,3.121s-3.233-1.516,1.078-5.49c23.811-17.666,26.072-35.98,26.072-35.98
	C285.833,331.836,270.209,349.178,266.007,354.779L266.007,354.779z M289.887,379.844c0.131,0.59,0.249,1.264,0.339,2.059
	C290.083,381.184,289.975,380.504,289.887,379.844c-1.499-6.691-5.315-1.174-5.315-1.174l7.918-15.188
	C291.286,367.15,288.702,371.32,289.887,379.844z M296.134,277.838c-12.708,8.758-10.276,22.631-9.979,29.439
	c-2.85-16.621-4.724-21.394-16.504-29.312c-2.323-1.248-3.645-2.361-3.645-2.361c1.314,0.826,2.521,1.607,3.645,2.361
	C274.722,280.69,284.584,284.031,296.134,277.838c0.966-0.667,2.016-1.307,3.163-1.908
	C298.229,276.651,297.177,277.284,296.134,277.838z M306.303,245.336c6.679-11.742-5.065-22.836-6.465-24.453
	c-1.4-1.615-0.431-3.338-0.431-3.338s2.153-1.188,2.8,0.861C315.998,235.539,306.303,245.336,306.303,245.336L306.303,245.336z
	 M311.042,292.871c0,0-0.97-1.293,1.078-2.479c21.871-6.572,29.521-22.297,29.521-22.297c-6.141,14.973-22.731,21.867-26.504,24.021
	C311.371,294.27,311.042,292.871,311.042,292.871z M317.767,361.713c0,0,1.827-6.938,5.01-0.145
	c1.104,20.211,10.217,30.01,10.217,30.01C316.479,376.639,317.767,361.713,317.767,361.713L317.767,361.713z M352.414,364.689
	c-3.555-19.932-13.789-28.547-13.789-28.547c18.208,12.816,18.745,27.793,18.745,27.793S356.401,371.045,352.414,364.689z
	 M363.294,322.895c-1.727-1.51-15.19-17.664-30.492-17.451c8.083-0.754,17.781-11.416,17.781-11.416
	C346.38,306.309,365.018,324.402,363.294,322.895L363.294,322.895z M374.394,268.604c0.647-6.569-3.02-2.91-3.447-2.047
	c-0.431,0.86-6.14,10.879-9.694,11.633c0,0,5.926-5.387,8.94-14.758c1.398-3.229,3.667-2.691,3.667-2.691s2.585,0.754,2.372,4.632
	c-0.216,3.877-1.296,11.524,1.724,15.188C375.578,277.331,373.747,275.175,374.394,268.604L374.394,268.604z M421.198,342.313
	c-4.706,3.354-9.355,9.75-10.282,18.621c1.097-14.221-7.628-19.531-8.979-20.264l-0.182-0.096l0.182,0.096
	C410.134,345.004,413.845,346.49,421.198,342.313c0.776-0.553,1.559-1.025,2.323-1.414
	C422.699,341.438,421.937,341.895,421.198,342.313z"/>
<path fill="#FAFAF6" d="M403.066,282.458c0,0-10.127-3.229-8.401-14.646c1.293-26.271-20.037-26.059-20.037-26.059
	s-17.454-0.431-23.918,18.736c-9.267,29.072-25.429,31.441-34.477,34.889c-9.047,3.444-10.131-0.216-10.131-0.216
	s-2.37-4.308,4.311-7.754c32.966-9.904,34.043-36.396,34.043-36.396s-0.434-9.689,15.514-15.507
	c18.102-7.536,20.901-17.228,20.901-17.228l21.72-40.886h-17.399c-5.131,10.642-13.965,28.942-14.876,30.765
	c-1.296,2.584-7.116,15.505-20.688,18.09c-13.576,2.584-14.867,12.275-16.594,20.891c-1.725,8.612-5.603,20.027-23.056,27.134
	c-6.372,2.594-10.471,5.762-13.115,8.738c-4.596,5.18-4.766,9.782-4.766,9.782s-0.435,16.581,16.589,15.29
	c44.39-4.304,53.008-39.837,53.008-39.837s3.881-14.214,12.498-14.43c9.27,0.215,7.975,10.554,7.975,20.457
	c0,9.906,7.542,17.873,15.947,20.892c8.399,3.017,10.987,9.043,14.222,14.431c3.23,5.385,0.646,9.479-0.646,10.771
	c-1.295,1.297-8.188,1.297-10.13-4.951c-1.939-6.246-14.65-23.043-15.299-24.336c-0.646-1.292-16.594-14.644-27.58-3.663
	c-10.771,12.275,2.587,26.707,2.587,26.707s8.615,7.105,23.054,28.855c15.946,37.475-16.808,53.406-16.808,53.406
	s-37.494,21.971-51.283-10.338c-13.791-32.305,4.956-39.838,4.956-39.838s6.463-1.295,7.11,5.813
	c0,12.922,6.032,23.688,7.113,26.271c1.076,2.58,20.254,25.199,39.43,4.092c17.021-22.396,1.078-40.699,1.078-40.699
	s-5.168-9.479-28.873-27.35c-26.717-19.597-49.128,10.551-49.128,10.551s-17.239,25.848-20.9,30.578
	c-3.666,4.738-18.103,13.998-23.704,6.895c-4.957-8.398,7.758-18.09,13.142-22.396c6.681-6.027,3.234-3.666,9.054-10.338
	c5.813-6.674,7.109-21.104,1.075-37.042c-5.819-17.013-21.334-15.72-21.334-15.72s-14.005,0.214-14.868,13.354
	c-0.43,15.075-0.43,24.333-9.695,26.917c-7.11,2.369-17.669-11.198-11.202-34.672c8.187-22.828,27.363-17.873,35.768-14.858
	c8.402,3.015,29.52,16.799,54.513-1.291c26.289-17.015,16.592-43.935,16.592-43.935s-7.538-28.642-35.552-25.411
	c-23.271,8.398-12.063,25.627-12.063,25.627s7.322,7.32,8.617,13.781c-0.215,9.045-20.472,8.398-26.075-0.215
	c-5.168-7.32,0.216-10.551,1.725-17.874c3.446-12.274-4.308-19.381-16.592-20.89c-12.066-2.8-39.865,6.676-42.234,18.304
	l6.897,14.213c0,0,14.651,2.8,7.756,12.274c-10.559,11.631-23.485-6.891-23.485-6.891s-11.634-18.52-34.475-8.398
	c-21.979,11.199-18.747,25.413-15.513,34.025c3.016,9.691,22.838,8.614,29.302,7.539c2.371-1.509,21.333,0.861,16.811,14.857
	c-5.171,13.997-20.254,3.229-23.056,0.646c-2.802-2.584-18.745-12.061-34.477-1.938c-15.731,10.123-14.868,37.905,2.155,50.614
	c16.808,12.705,43.095-9.045,43.095-9.045s9.697-6.027,15.516,0.215c4.526,6.028,1.078,11.849,1.078,11.849l-42.793,60.808h17.109
	c12.258-16.535,27.353-37.266,34.518-48.531c11.852-20.021,2.156-28.207-2.801-34.457c-6.465-6.025-21.547-6.457-34.476,2.802
	c-4.823,5.237-36.477,17.808-31.244-15.937c5.387-18.52,24.345-5.599,24.345-5.599s15.3,10.769,25.21,6.892
	c19.393-4.955,17.883-25.627,17.883-25.627s1.51-17.659-19.606-19.168c-18.964,2.152-25.209-2.801-25.857-3.877
	c-1.723-1.508-3.231-12.062,9.05-16.15c13.79-3.877,26.289,13.999,26.289,13.999s11.204,10.982,23.486,6.46
	c12.927-4.523,12.927-9.905,15.515-15.722c3.878-11.414-8.619-20.459-8.619-20.459s-7.758-6.677,10.559-11.629
	c22.192-0.863,11.421,16.367,11.421,16.367s-9.586,21.169,20.468,28.856c2.153,0.431,24.997,7.968,34.047-5.815
	c6.894-10.551,2.37-16.798,2.37-16.798s-4.957-6.89-9.697-14.212c-3.878-10.337,9.049-7.107,9.049-7.107s24.134,11.631,9.267,38.334
	c-18.963,23.474-48.051,9.476-48.051,9.476s-20.9-10.553-35.122-1.938c-26.933,12.923-21.116,48.456-21.116,48.456
	s3.663,28.646,23.701,25.627c19.178-2.801,22.196-17.44,21.551-23.688c-0.647-6.246,2.368-14,2.368-14s2.585-3.445,7.113-0.647
	c7.974,7.322,7.758,21.538,5.169,27.997c-2.586,6.461-15.299,15.506-22.41,23.905c-7.111,8.398-7.973,21.104,3.448,28.209
	c12.498,7.107,21.333,2.371,29.089-2.155c7.761-4.521,10.772-7.968,24.78-31.871c14.006-23.905,27.365-19.596,37.063-14.856
	c9.694,4.31,20.468,18.733,23.703,21.317c3.229,2.586,15.729,23.906-1.511,30.798c-17.237,6.896-19.395-17.44-19.825-21.966
	c-0.433-4.524-3.446-23.045-20.899-19.381c-23.056,6.892-22.407,31.44-22.622,36.396c-0.215,4.949,6.247,38.115,37.274,43.934
	c26.72,3.877,49.126-6.678,59.473-27.996c14.002-24.117,1.509-55.771-10.132-65.688c-19.395-15.938-18.313-22.182-16.374-23.905
	c1.938-1.724,8.187-3.444,22.193,19.383c7.755,22.185,18.528,20.024,18.528,20.024s11.207,0.215,15.948-13.354
	C429.785,295.592,403.066,282.458,403.066,282.458L403.066,282.458z"/>
<path fill="#A18E5C" d="M170.225,383.531c-1.539-1.131-3.354-0.98-4.641,0.965c-1.42,2.422-1.434,7.563-1.434,7.563
	s5.331-2.137,6.656-3.857C172.126,386.475,171.763,384.662,170.225,383.531z M178.268,371.883c-1.54-1.129-3.354-0.982-4.643,0.965
	c-1.42,2.422-1.433,7.564-1.433,7.564s5.329-2.139,6.653-3.861C180.174,374.824,179.809,373.016,178.268,371.883L178.268,371.883z
	 M186.589,361.066c-1.539-1.135-3.354-0.986-4.641,0.961c-1.422,2.42-1.432,7.563-1.432,7.563s5.328-2.137,6.654-3.861
	C188.492,364.006,188.126,362.199,186.589,361.066z M194.91,348.863c-1.54-1.133-3.354-0.986-4.643,0.963
	c-1.42,2.422-1.433,7.563-1.433,7.563s5.329-2.139,6.655-3.863C196.813,351.805,196.449,349.996,194.91,348.863L194.91,348.863z
	 M202.559,335.771c-1.706-0.861-3.473-0.422-4.42,1.709c-1.004,2.621-0.177,7.691-0.177,7.691s4.906-2.979,5.934-4.896
	C204.919,338.365,204.263,336.639,202.559,335.771L202.559,335.771z M201.024,320.389c-1.902,0.184-3.158,1.5-2.821,3.813
	c0.552,2.754,3.965,6.594,3.965,6.594s2.554-5.142,2.394-7.312C204.408,321.314,202.926,320.209,201.024,320.389L201.024,320.389z
	 M186.852,315.012c-0.363,1.877,0.548,3.451,2.859,3.781c2.798,0.246,7.445-1.947,7.445-1.947s-4.213-3.895-6.34-4.354
	C188.695,312.029,187.217,313.139,186.852,315.012L186.852,315.012z M174.623,315.264c-2.036,0.76-2.687,2.49-1.981,4.264
	c0.708,1.775,2.325,2.613,4.448,1.645c2.488-1.303,5.221-5.652,5.221-5.652S176.66,314.5,174.623,315.264L174.623,315.264z
	 M169.428,322.1c0,0-5.736-0.262-7.656,0.756c-1.922,1.021-2.339,2.82-1.405,4.488c0.934,1.666,2.647,2.287,4.621,1.041
	C167.287,326.771,169.428,322.1,169.428,322.1z M148.366,326.484c-2.146,0.344-3.122,1.91-2.777,3.791
	c0.343,1.879,1.766,3.02,4.038,2.479c2.693-0.789,6.228-4.521,6.228-4.521S150.513,326.137,148.366,326.484z M133.847,322.605
	c-1.266,1.436-1.284,3.256,0.542,4.713c2.284,1.629,7.401,2.104,7.401,2.104s-1.647-5.5-3.247-6.975
	C136.947,320.973,135.111,321.174,133.847,322.605L133.847,322.605z M133.174,311.838c-0.383-2.139-1.966-3.092-3.839-2.717
	c-1.875,0.377-2.989,1.816-2.416,4.08c0.833,2.68,4.622,6.152,4.622,6.152S133.555,313.979,133.174,311.838z M133.032,298.936
	c0.536-2.106-0.514-3.625-2.376-4.059c-1.862-0.432-3.472,0.422-3.883,2.721c-0.347,2.785,1.671,7.515,1.671,7.515
	S132.496,301.043,133.032,298.936z M140.81,284.43c-1.21-1.475-3.008-1.783-4.735-0.213c-1.978,1.995-3.261,6.973-3.261,6.973
	s5.691-0.752,7.402-2.095C141.926,287.752,142.021,285.911,140.81,284.43z M155.747,285.209c0.275-1.889-0.706-3.424-3.031-3.645
	c-2.804-0.116-7.352,2.285-7.352,2.285s4.389,3.705,6.532,4.063C154.042,288.274,155.472,287.102,155.747,285.209z M163.654,293.166
	c1.752,1.287,3.553,0.883,4.654-0.683c1.099-1.563,0.915-3.375-1.064-4.618c-2.452-1.367-7.591-1.272-7.591-1.272
	S161.901,291.875,163.654,293.166L163.654,293.166z M181.893,296.524c0.397-1.868-0.482-3.465-2.788-3.836
	c-2.792-0.299-7.482,1.799-7.482,1.799s4.136,3.981,6.253,4.481C179.993,299.467,181.495,298.393,181.893,296.524z M190.353,288.731
	c-2.021,1.951-3.414,6.899-3.414,6.899s5.708-0.623,7.446-1.929c1.742-1.305,1.876-3.146,0.698-4.65
	C193.905,287.545,192.115,287.202,190.353,288.731L190.353,288.731z M200.492,278.292c0.34-2.147-0.844-3.563-2.738-3.826
	c-1.892-0.258-3.42,0.737-3.619,3.064c-0.093,2.806,2.352,7.329,2.352,7.329S200.151,280.438,200.492,278.292z M189.012,263.188
	c-1.529,1.146-1.918,2.924-0.428,4.724c1.903,2.063,6.82,3.567,6.82,3.567s-0.494-5.719-1.759-7.487
	C192.381,262.223,190.539,262.045,189.012,263.188z M174.502,262.958c0.051,1.91,1.279,3.255,3.609,3.074
	c2.785-0.363,6.853-3.505,6.853-3.505s-4.955-2.9-7.13-2.889C175.658,259.649,174.45,261.046,174.502,262.958L174.502,262.958z
	 M160.356,262.958c0.052,1.91,1.279,3.255,3.608,3.074c2.784-0.363,6.854-3.505,6.854-3.505s-4.956-2.9-7.13-2.889
	C161.513,259.647,160.306,261.046,160.356,262.958L160.356,262.958z M149.508,254.055c-1.379,1.32-1.549,3.135,0.147,4.738
	c2.138,1.818,7.201,2.721,7.201,2.721s-1.183-5.619-2.649-7.223C152.736,252.688,150.887,252.733,149.508,254.055z M154.431,243.334
	c0.689-2.063-0.247-3.654-2.072-4.223c-1.823-0.568-3.49,0.162-4.073,2.424c-0.553,2.753,1.109,7.617,1.109,7.617
	S153.74,245.399,154.431,243.334L154.431,243.334z M164.74,231.271c-0.877-1.696-2.57-2.373-4.586-1.196
	c-2.348,1.538-4.641,6.14-4.641,6.14s5.722,0.451,7.674-0.505C165.139,234.75,165.616,232.965,164.74,231.271z M178.951,231.292
	c0.361-1.875-0.55-3.453-2.863-3.778c-2.799-0.242-7.445,1.955-7.445,1.955s4.217,3.896,6.346,4.35
	C177.116,234.272,178.59,233.167,178.951,231.292z M190.084,239.483c1.499-1.188,1.836-2.978,0.296-4.732
	c-1.962-2.01-6.917-3.38-6.917-3.38s0.652,5.703,1.968,7.437C186.745,240.542,188.589,240.667,190.084,239.483z M201.016,249.425
	c1.356-1.345,1.494-3.161-0.231-4.733c-2.173-1.781-7.249-2.592-7.249-2.592s1.283,5.596,2.781,7.174
	C197.813,250.85,199.66,250.772,201.016,249.425L201.016,249.425z M215.285,251.506c-0.049-1.908-1.276-3.256-3.604-3.079
	c-2.785,0.36-6.856,3.498-6.856,3.498s4.952,2.905,7.126,2.896C214.126,254.813,215.334,253.417,215.285,251.506L215.285,251.506z
	 M225.995,246.421c1.369-1.688,1.052-3.509-0.458-4.683c-1.51-1.17-3.328-1.07-4.665,0.844c-1.483,2.383-1.629,7.521-1.629,7.521
	S224.624,248.11,225.995,246.421L225.995,246.421z M221.073,231.836c1.344,2.466,5.747,5.123,5.747,5.123s0.914-5.669,0.118-7.691
	c-0.799-2.024-2.537-2.643-4.301-1.906C220.869,228.101,220.062,229.731,221.073,231.836z M218.585,225.772
	c0,0-0.608-5.709-1.908-7.453c-1.299-1.744-3.141-1.883-4.649-0.709c-1.507,1.176-1.86,2.963-0.333,4.729
	C213.64,224.362,218.585,225.772,218.585,225.772z M222.73,206.603c-1.092-1.567-2.856-2.014-4.703-0.584
	c-2.127,1.834-3.799,6.695-3.799,6.695s5.733-0.301,7.542-1.507C223.583,210,223.824,208.167,222.73,206.603z M234.831,206.76
	c2.161-0.246,3.209-1.767,2.951-3.662c-0.255-1.895-1.626-3.097-3.919-2.666c-2.727,0.663-6.434,4.227-6.434,4.227
	S232.668,207.003,234.831,206.76z M247.834,208.833c1.906,1.047,3.639,0.41,4.526-1.283c0.883-1.694,0.461-3.467-1.662-4.44
	c-2.609-1.036-7.692-0.263-7.692-0.263S245.929,207.789,247.834,208.833L247.834,208.833z M254.199,220.633
	c1.842,0.512,3.487-0.267,4-2.547c0.471-2.768-1.341-7.581-1.341-7.581s-4.225,3.888-4.852,5.968
	C251.375,218.56,252.361,220.123,254.199,220.633L254.199,220.633z M255.084,232.233c-0.207-2.799-3.119-7.035-3.119-7.035
	s-3.169,4.787-3.277,6.96c-0.109,2.173,1.221,3.452,3.13,3.509C253.726,235.722,255.139,234.567,255.084,232.233L255.084,232.233z
	 M257.888,247.083c1.733,1.313,3.542,0.935,4.663-0.61c1.12-1.548,0.963-3.361-0.994-4.635c-2.433-1.404-7.573-1.384-7.573-1.384
	S256.156,245.769,257.888,247.083L257.888,247.083z M277.308,249.556c0.269-1.892-0.718-3.422-3.044-3.635
	c-2.804-0.107-7.342,2.311-7.342,2.311s4.398,3.687,6.544,4.039C275.618,252.625,277.036,251.446,277.308,249.556L277.308,249.556z
	 M290.256,249.601c1.979-0.91,2.496-2.683,1.663-4.399c-0.836-1.718-2.511-2.435-4.557-1.312c-2.387,1.481-4.794,6.023-4.794,6.023
	S288.283,250.508,290.256,249.601L290.256,249.601z M290.599,233.892c0.595,2.744,4.066,6.536,4.066,6.536s2.477-5.18,2.285-7.346
	c-0.194-2.167-1.688-3.252-3.588-3.043C291.466,230.25,290.223,231.584,290.599,233.892z M285.042,217.26
	c-1.678,0.917-2.313,2.624-1.092,4.614c1.591,2.313,6.243,4.5,6.243,4.5s0.324-5.731-0.681-7.664
	C288.512,216.781,286.72,216.344,285.042,217.26z M290.167,204.083c-1.387-1.318-3.2-1.403-4.727,0.366
	c-1.718,2.221-2.385,7.318-2.385,7.318s5.556-1.439,7.088-2.982C291.683,207.247,291.552,205.403,290.167,204.083L290.167,204.083z
	 M300.913,207.392c2.07,0.659,3.651-0.3,4.191-2.133s-0.216-3.491-2.484-4.036c-2.764-0.513-7.601,1.224-7.601,1.224
	S298.843,206.731,300.913,207.392L300.913,207.392z M316.117,215.765c1.51-1.166,1.873-2.953,0.354-4.727
	c-1.935-2.035-6.873-3.469-6.873-3.469s0.578,5.711,1.87,7.461C312.764,216.785,314.603,216.931,316.117,215.765z M317.306,226.875
	c0.401,2.139,1.995,3.073,3.864,2.684c1.871-0.393,2.975-1.844,2.378-4.102c-0.856-2.674-4.674-6.114-4.674-6.114
	S316.908,224.737,317.306,226.875z M245.847,304.705c-1.856-0.455-3.478,0.377-3.917,2.668c-0.385,2.779,1.572,7.535,1.572,7.535
	s4.103-4.018,4.668-6.115C248.736,306.688,247.703,305.16,245.847,304.705L245.847,304.705z M244.152,292.949
	c-0.384,2.78,1.573,7.534,1.573,7.534s4.103-4.017,4.669-6.115c0.566-2.102-0.469-3.635-2.324-4.09
	C246.214,289.827,244.592,290.661,244.152,292.949L244.152,292.949z M256.581,287.223c2.021-0.805,2.629-2.55,1.882-4.307
	c-0.747-1.759-2.384-2.559-4.484-1.538c-2.457,1.356-5.09,5.774-5.09,5.774S254.561,288.031,256.581,287.223z M262.237,285.024
	c0,0,1.446,5.557,2.992,7.086c1.543,1.533,3.386,1.396,4.701,0.015c1.314-1.385,1.398-3.204-0.373-4.728
	C267.333,285.688,262.238,285.024,262.237,285.024L262.237,285.024z M271.655,296c0,0-2.17,5.316-1.853,7.466
	c0.317,2.152,1.873,3.15,3.756,2.828c1.886-0.315,3.044-1.724,2.537-4.004C275.343,299.587,271.655,296,271.655,296L271.655,296z
	 M270.349,317.324c-0.377,2.141,0.784,3.576,2.671,3.869c1.893,0.293,3.436-0.68,3.669-3.004c0.141-2.805-2.224-7.363-2.224-7.363
	S270.729,315.184,270.349,317.324L270.349,317.324z M269.058,332.828c1.54-2.352,1.806-7.482,1.806-7.482s-5.428,1.869-6.836,3.527
	c-1.409,1.658-1.134,3.484,0.349,4.688C265.855,334.771,267.678,334.711,269.058,332.828L269.058,332.828z M258.414,342.77
	c1.816-2.141,2.711-7.201,2.711-7.201s-5.616,1.189-7.217,2.658c-1.604,1.477-1.554,3.314-0.232,4.695
	C255,344.303,256.818,344.469,258.414,342.77L258.414,342.77z M245.7,354.33c1.695,0.883,3.468,0.463,4.441-1.662
	c1.036-2.611,0.264-7.691,0.264-7.691s-4.941,2.924-5.988,4.826C243.368,351.709,244.006,353.445,245.7,354.33z M244.302,359.031
	c0,0-0.211,5.734,0.828,7.645c1.04,1.91,2.842,2.313,4.5,1.365c1.66-0.949,2.26-2.666,1.002-4.635
	C248.993,361.131,244.302,359.031,244.302,359.031z M260.03,367.158c-2.761,0.516-6.649,3.879-6.649,3.879s5.11,2.619,7.278,2.49
	c2.172-0.135,3.297-1.596,3.141-3.498C263.649,368.123,262.345,366.85,260.03,367.158L260.03,367.158z M271.638,362.703
	c-2.167,1.785-3.945,6.604-3.945,6.604s5.738-0.172,7.578-1.334c1.838-1.162,2.118-2.988,1.063-4.584
	C275.27,361.801,273.514,361.314,271.638,362.703z M285.997,353.113c-1.494-1.193-3.315-1.117-4.675,0.781
	c-1.516,2.363-1.727,7.498-1.727,7.498s5.405-1.928,6.799-3.598C287.783,356.123,287.489,354.305,285.997,353.113z M294.038,341.186
	c-1.494-1.188-3.315-1.113-4.676,0.787c-1.514,2.365-1.725,7.498-1.725,7.498s5.406-1.928,6.802-3.596
	C295.828,344.201,295.533,342.379,294.038,341.186z M296.849,330.043c-1.514,2.367-1.727,7.498-1.727,7.498s5.406-1.928,6.801-3.596
	c1.393-1.668,1.098-3.492-0.396-4.689C300.033,328.07,298.215,328.146,296.849,330.043z M310.447,318.965
	c-1.384-1.316-3.2-1.402-4.725,0.367c-1.715,2.219-2.384,7.318-2.384,7.318s5.555-1.439,7.091-2.984
	C311.961,322.123,311.827,320.279,310.447,318.965z M322.867,313.617c-0.718-1.771-2.34-2.6-4.455-1.615
	c-2.482,1.313-5.192,5.684-5.192,5.684s5.659,0.98,7.689,0.207C322.938,317.123,323.58,315.389,322.867,313.617L322.867,313.617z
	 M336.249,315.371c0.521-1.838-0.252-3.488-2.528-4.012c-2.766-0.48-7.585,1.303-7.585,1.303s3.865,4.248,5.943,4.885
	C334.16,318.186,335.729,317.207,336.249,315.371L336.249,315.371z M343.294,323.475c1.776,1.252,3.57,0.816,4.642-0.766
	c1.067-1.582,0.845-3.393-1.153-4.6c-2.479-1.322-7.615-1.129-7.615-1.129S341.519,322.217,343.294,323.475L343.294,323.475z
	 M358.473,331.77c1.244-1.441,1.243-3.27-0.604-4.703c-2.301-1.604-7.429-2.02-7.429-2.02s1.708,5.479,3.328,6.936
	S357.223,333.215,358.473,331.77L358.473,331.77z M368.036,341.949c1.437-1.254,1.688-3.063,0.066-4.738
	c-2.06-1.912-7.072-3.041-7.072-3.041s0.926,5.67,2.323,7.334C364.749,343.172,366.596,343.207,368.036,341.949L368.036,341.949z
	 M374.683,354.123c1.786-0.674,2.653-2.273,1.725-4.414c-1.256-2.516-5.554-5.328-5.554-5.328s-1.119,5.629-0.396,7.68
	C371.178,354.113,372.894,354.797,374.683,354.123L374.683,354.123z M375.091,367.99c1.893,0.248,3.413-0.764,3.596-3.086
	c0.066-2.809-2.403-7.314-2.403-7.314s-3.632,4.447-3.955,6.598C371.999,366.338,373.196,367.744,375.091,367.99L375.091,367.99z
	 M367.076,375.377c-1.398,1.666-1.116,3.488,0.373,4.688c1.491,1.197,3.312,1.131,4.681-0.764c1.525-2.354,1.761-7.488,1.761-7.488
	S368.476,373.711,367.076,375.377z M356.98,380.219c-2.164,0.182-3.257,1.668-3.061,3.572c0.203,1.902,1.533,3.145,3.839,2.781
	c2.749-0.58,6.558-4.029,6.558-4.029S359.147,380.039,356.98,380.219L356.98,380.219z M346.007,376.051
	c-1.655-1.408-3.481-1.131-4.688,0.348c-1.205,1.48-1.148,3.307,0.734,4.688c2.349,1.537,7.484,1.799,7.484,1.799
	S347.666,377.461,346.007,376.051L346.007,376.051z M336.449,362.684c-1.883,0.332-3.031,1.742-2.52,4.021
	c0.766,2.699,4.468,6.268,4.468,6.268s2.146-5.322,1.818-7.477C339.891,363.346,338.33,362.357,336.449,362.684L336.449,362.684z
	 M335.348,359.104c0,0,2.147-5.318,1.818-7.475c-0.327-2.152-1.889-3.141-3.768-2.811c-1.884,0.326-3.032,1.738-2.52,4.018
	C331.643,355.533,335.348,359.104,335.348,359.104L335.348,359.104z M332.036,345.375c0,0-1.405-5.564-2.938-7.109
	c-1.529-1.545-3.374-1.424-4.701-0.053c-1.328,1.377-1.429,3.197,0.335,4.73C326.942,344.676,332.036,345.375,332.036,345.375
	L332.036,345.375z M315.553,346.58c2.374-1.508,4.728-6.078,4.728-6.078s-5.714-0.527-7.681,0.402
	c-1.966,0.93-2.465,2.709-1.615,4.414C311.835,347.031,313.52,347.729,315.553,346.58z M303.373,353.947
	c-0.765,2.033,0.114,3.662,1.919,4.293c1.806,0.633,3.499-0.041,4.155-2.283c0.651-2.73-0.844-7.65-0.844-7.65
	S304.137,351.91,303.373,353.947L303.373,353.947z M307.644,368.613c-0.325-2.795-3.409-6.9-3.409-6.9s-2.967,4.912-2.987,7.084
	c-0.021,2.178,1.361,3.398,3.273,3.379C306.431,372.154,307.792,370.943,307.644,368.613L307.644,368.613z M310.229,381.664
	c-1.188-2.545-5.412-5.471-5.412-5.471s-1.266,5.598-0.601,7.672c0.664,2.066,2.367,2.797,4.171,2.168
	C310.189,385.408,311.102,383.828,310.229,381.664z M309.976,389.764c0,0,0.229,5.738,1.408,7.564
	c1.182,1.824,3.009,2.09,4.593,1.02c1.58-1.07,2.053-2.834,0.646-4.693C314.813,391.498,309.976,389.764,309.976,389.764z
	 M326.783,402.465c-2.397-1.461-7.537-1.563-7.537-1.563s2.043,5.361,3.746,6.717c1.703,1.354,3.518,1.021,4.674-0.496
	C328.822,405.604,328.705,403.787,326.783,402.465z M338.372,406.396c-2.806,0.117-7.134,2.889-7.134,2.889s4.678,3.326,6.847,3.51
	c2.169,0.18,3.492-1.104,3.611-3.014C341.813,407.875,340.707,406.426,338.372,406.396z M351.829,405.527
	c-2.726,0.68-6.404,4.268-6.404,4.268s5.258,2.311,7.413,2.051c2.163-0.258,3.197-1.787,2.929-3.68
	C355.494,406.275,354.121,405.078,351.829,405.527z M364.479,401.43c-2.415,1.432-4.925,5.912-4.925,5.912s5.697,0.723,7.692-0.145
	c1.992-0.861,2.557-2.619,1.757-4.359C368.208,401.102,366.551,400.348,364.479,401.43z M375.783,394.281
	c-2.049,1.924-3.512,6.852-3.512,6.852s5.713-0.543,7.473-1.826c1.76-1.271,1.922-3.117,0.767-4.639
	C379.353,393.145,377.57,392.773,375.783,394.281z M389.426,383.523c-1.511-1.174-3.327-1.07-4.667,0.844
	c-1.479,2.387-1.624,7.521-1.624,7.521s5.382-1.998,6.749-3.688C391.255,386.514,390.937,384.693,389.426,383.523z M394.076,369.605
	c-1.811-0.609-3.496,0.076-4.131,2.328c-0.615,2.736,0.935,7.641,0.935,7.641s4.426-3.654,5.167-5.699
	C396.786,371.834,395.883,370.217,394.076,369.605L394.076,369.605z M394.302,355.096c-1.906-0.063-3.326,1.074-3.294,3.412
	c0.19,2.801,3.073,7.057,3.073,7.057s3.2-4.768,3.325-6.938C397.533,356.455,396.212,355.166,394.302,355.096L394.302,355.096z
	 M390.238,340.551c-1.86,0.434-2.936,1.904-2.296,4.148c0.91,2.658,4.803,6.02,4.803,6.02s1.854-5.434,1.409-7.559
	C393.71,341.025,392.102,340.123,390.238,340.551L390.238,340.551z M386.913,329.289c-1.061-1.9-2.861-2.287-4.516-1.318
	c-1.648,0.961-2.235,2.689-0.958,4.646c1.662,2.266,6.372,4.314,6.372,4.314S387.967,331.191,386.913,329.289z M377.064,318.146
	c-1.303-1.746-3.147-1.877-4.649-0.699s-1.85,2.967-0.317,4.729c1.949,2.021,6.896,3.414,6.896,3.414
	S378.369,319.885,377.064,318.146L377.064,318.146z M367.912,307.881c-1.306-1.738-3.147-1.873-4.649-0.693
	c-1.504,1.18-1.853,2.965-0.321,4.729c1.951,2.021,6.897,3.416,6.897,3.416S369.216,309.623,367.912,307.881z M363.93,296.947
	c-0.172-2.169-1.657-3.271-3.555-3.08c-1.899,0.19-3.154,1.514-2.805,3.823c0.568,2.752,3.996,6.582,3.996,6.582
	S364.099,299.112,363.93,296.947z M372.494,289.44c-0.218-1.898-1.565-3.127-3.865-2.743c-2.738,0.61-6.516,4.1-6.516,4.1
	s5.195,2.449,7.354,2.246C371.637,292.84,372.717,291.337,372.494,289.44z M383.925,297.44c1.196-1.488,1.132-3.311-0.762-4.679
	c-2.356-1.521-7.488-1.763-7.488-1.763s1.9,5.417,3.563,6.816C380.902,299.215,382.728,298.927,383.925,297.44z M392.309,304.467
	c-1.679-2.252-6.409-4.262-6.409-4.262s-0.105,5.74,0.968,7.631c1.071,1.893,2.883,2.258,4.526,1.281
	C393.033,308.141,393.605,306.408,392.309,304.467L392.309,304.467z M399.173,316.111c-1.681-2.252-6.411-4.26-6.411-4.26
	s-0.104,5.742,0.968,7.631c1.074,1.893,2.886,2.258,4.526,1.277C399.896,319.789,400.47,318.061,399.173,316.111z M407.178,325.039
	c-2.568-1.143-7.677-0.57-7.677-0.57s2.729,5.053,4.589,6.178c1.863,1.119,3.621,0.559,4.571-1.104
	C409.612,327.883,409.264,326.094,407.178,325.039z M414.809,320.723c-1.915,2.055-3.044,7.068-3.044,7.068s5.669-0.922,7.336-2.318
	c1.667-1.393,1.704-3.24,0.447-4.68C418.291,319.352,416.489,319.1,414.809,320.723L414.809,320.723z M414.814,310.021
	c0.834,2.684,4.617,6.156,4.617,6.156s2.021-5.375,1.637-7.516c-0.382-2.146-1.962-3.098-3.84-2.725
	C415.36,306.314,414.242,307.758,414.814,310.021z M415.077,302.805c0,0-0.042-5.74-1.161-7.603
	c-1.12-1.863-2.938-2.184-4.559-1.162c-1.616,1.021-2.144,2.764-0.798,4.673C410.295,300.916,415.077,302.805,415.077,302.805z
	 M398.379,291.315c2.376,1.496,7.515,1.67,7.515,1.67s-1.972-5.396-3.651-6.771c-1.682-1.377-3.501-1.069-4.683,0.433
	C396.383,288.153,396.47,289.973,398.379,291.315L398.379,291.315z M392.97,278.078c-1.015-1.927-2.808-2.354-4.482-1.431
	c-1.676,0.925-2.298,2.636-1.071,4.619c1.604,2.303,6.266,4.471,6.266,4.471S393.981,280.002,392.97,278.078z M388.542,272.6
	c0,0,2.717-5.057,2.626-7.229c-0.089-2.175-1.532-3.326-3.438-3.207c-1.902,0.119-3.203,1.396-2.939,3.715
	C385.251,268.649,388.542,272.6,388.542,272.6L388.542,272.6z M386.08,250.492c-0.858-1.998-2.617-2.561-4.354-1.768
	c-1.742,0.795-2.493,2.451-1.425,4.522c1.429,2.421,5.904,4.937,5.904,4.937S386.94,252.487,386.08,250.492z M371.371,251.494
	c2.75-0.579,6.559-4.03,6.559-4.03s-5.163-2.503-7.333-2.323c-2.166,0.18-3.257,1.668-3.062,3.57
	C367.735,250.61,369.064,251.854,371.371,251.494L371.371,251.494z M362.78,257.951c1.621-2.295,2.069-7.415,2.069-7.415
	s-5.49,1.678-6.957,3.281c-1.471,1.606-1.254,3.441,0.181,4.699C359.51,259.772,361.332,259.781,362.78,257.951L362.78,257.951z
	 M352.962,271.723c1.77,0.726,3.495,0.139,4.271-2.063c0.792-2.694-0.446-7.684-0.446-7.684s-4.648,3.363-5.518,5.357
	C350.403,269.332,351.198,270.998,352.962,271.723L352.962,271.723z M350.448,282.817c1.159-2.557,0.645-7.67,0.645-7.67
	s-5.078,2.678-6.219,4.53c-1.141,1.851-0.588,3.616,1.063,4.581C347.58,285.223,349.373,284.889,350.448,282.817z M340.214,293.809
	c1.937-2.035,3.116-7.039,3.116-7.039s-5.674,0.869-7.354,2.25c-1.683,1.377-1.737,3.227-0.495,4.674
	C336.716,295.145,338.518,295.415,340.214,293.809z M327.323,300.98c2.463-1.353,5.114-5.757,5.114-5.757s-5.67-0.901-7.692-0.103
	c-2.023,0.798-2.639,2.54-1.896,4.301C323.582,301.186,325.219,301.992,327.323,300.98L327.323,300.98z M311.533,298.791
	c-2.141,0.377-3.095,1.958-2.728,3.833c0.373,1.873,1.809,2.987,4.074,2.426c2.688-0.825,6.169-4.609,6.169-4.609
	S313.676,298.414,311.533,298.791z M302.949,295.55c-1.41-1.655-3.257-1.671-4.685-0.403c-1.431,1.271-1.664,3.08-0.021,4.742
	c2.071,1.894,7.1,2.974,7.1,2.974S304.363,297.208,302.949,295.55L302.949,295.55z M304.459,283.764
	c-1.353-1.353-3.166-1.486-4.735,0.243c-1.771,2.175-2.572,7.255-2.572,7.255s5.593-1.295,7.167-2.795
	C305.892,286.962,305.809,285.118,304.459,283.764z M315.452,282.018c1.925-1.012,2.346-2.811,1.424-4.48
	c-0.927-1.67-2.638-2.295-4.619-1.064c-2.302,1.606-4.462,6.271-4.462,6.271S313.521,283.034,315.452,282.018L315.452,282.018z
	 M320.248,276.714c0,0,5.669-0.892,7.348-2.276c1.68-1.388,1.727-3.231,0.479-4.678c-1.247-1.447-3.051-1.708-4.739-0.097
	C321.406,271.708,320.248,276.714,320.248,276.714L320.248,276.714z M337.417,262.871c1.351-1.706,1.012-3.521-0.514-4.677
	c-1.521-1.152-3.345-1.032-4.654,0.896c-1.455,2.401-1.544,7.541-1.544,7.541S336.07,264.577,337.417,262.871L337.417,262.871z
	 M342.243,247.985c0.71-2.055-0.207-3.656-2.026-4.244c-1.819-0.586-3.496,0.127-4.1,2.381c-0.579,2.746,1.03,7.627,1.03,7.627
	S341.533,250.042,342.243,247.985z M347.807,232.542c-1.471-1.225-3.289-1.191-4.69,0.675c-1.569,2.33-1.897,7.46-1.897,7.46
	s5.448-1.803,6.881-3.441C349.53,235.591,349.273,233.765,347.807,232.542L347.807,232.542z M359.022,232.81
	c2.061-0.703,2.756-2.412,2.1-4.207c-0.654-1.793-2.25-2.679-4.396-1.767c-2.526,1.229-5.383,5.506-5.383,5.506
	S356.961,233.509,359.022,232.81z M371.702,219.944c-1.287-1.412-3.098-1.623-4.741,0.035c-1.868,2.099-2.89,7.136-2.89,7.136
	s5.645-1.048,7.281-2.48C372.989,223.206,372.988,221.354,371.702,219.944z M379.783,211.487c1.175-1.829,0.659-3.604-0.97-4.602
	c-1.628-0.999-3.431-0.699-4.545,1.35c-1.212,2.533-0.794,7.658-0.794,7.658S378.605,213.317,379.783,211.487L379.783,211.487z
	 M386.437,199.003c1.175-1.829,0.662-3.603-0.97-4.6c-1.628-1-3.428-0.7-4.54,1.351c-1.214,2.531-0.795,7.655-0.795,7.655
	S385.262,200.834,386.437,199.003L386.437,199.003z M392.538,186.318c1.177-1.83,0.659-3.604-0.968-4.602
	c-1.629-0.999-3.431-0.7-4.546,1.351c-1.212,2.533-0.791,7.657-0.791,7.657S391.364,188.146,392.538,186.318L392.538,186.318z
	 M317.485,241.623c-0.419,2.135,0.716,3.594,2.599,3.919c1.883,0.327,3.441-0.615,3.728-2.933c0.191-2.801-2.088-7.407-2.088-7.407
	S317.904,239.485,317.485,241.623L317.485,241.623z M316.096,256.848c1.434-2.416,1.472-7.557,1.472-7.557s-5.342,2.111-6.672,3.83
	c-1.336,1.717-0.977,3.529,0.559,4.668C312.984,258.927,314.801,258.791,316.096,256.848L316.096,256.848z M298.905,265.535
	c0.888,1.69,2.587,2.353,4.597,1.161c2.335-1.557,4.593-6.174,4.593-6.174s-5.723-0.412-7.671,0.563
	C298.479,262.052,298.014,263.842,298.905,265.535L298.905,265.535z M286.633,265.237c-2.165,0.214-3.237,1.719-3.009,3.615
	c0.227,1.896,1.574,3.121,3.877,2.728c2.738-0.619,6.495-4.125,6.495-4.125S288.794,265.026,286.633,265.237z M268.512,266.879
	c-0.397,1.867,0.483,3.463,2.788,3.833c2.794,0.298,7.484-1.803,7.484-1.803s-4.14-3.979-6.259-4.479
	C270.408,263.936,268.908,265.011,268.512,266.879L268.512,266.879z M259.099,259.875c-2.026-0.791-3.663,0.066-4.318,1.861
	c-0.657,1.793-0.007,3.498,2.222,4.187c2.723,0.687,7.663-0.737,7.663-0.737S261.125,260.667,259.099,259.875L259.099,259.875z
	 M251.158,260.555c0,0-4.348-3.748-6.489-4.133c-2.14-0.384-3.581,0.773-3.877,2.66c-0.295,1.889,0.667,3.434,2.99,3.678
	C246.585,262.911,251.157,260.555,251.158,260.555L251.158,260.555z M236.455,258.708c0,0-5.68-0.823-7.692,0.004
	c-2.012,0.827-2.603,2.577-1.837,4.327c0.765,1.751,2.411,2.535,4.498,1.493C233.866,263.147,236.455,258.708,236.455,258.708z
	 M217.262,273.598c1.574,1.077,3.388,0.868,4.606-1.125c1.336-2.471,1.17-7.605,1.17-7.605s-5.254,2.318-6.52,4.088
	C215.256,270.723,215.681,272.52,217.262,273.598L217.262,273.598z M210.359,282.737c-0.78,2.029,0.087,3.664,1.889,4.308
	c1.799,0.647,3.497-0.014,4.171-2.25c0.67-2.728-0.783-7.657-0.783-7.657S211.139,280.707,210.359,282.737z M214.937,298.172
	c-0.385-2.781-3.555-6.826-3.555-6.826s-2.864,4.976-2.838,7.15c0.026,2.177,1.432,3.373,3.344,3.309S215.134,300.5,214.937,298.172
	z M212.323,306.4c0,0-1.232,5.604-0.551,7.674c0.68,2.064,2.383,2.781,4.183,2.145c1.801-0.637,2.702-2.217,1.813-4.377
	C216.562,309.303,212.323,306.4,212.323,306.4z M225.954,320.688c-2.546-1.18-7.668-0.697-7.668-0.697s2.64,5.104,4.485,6.256
	c1.845,1.154,3.612,0.613,4.59-1.021C228.34,323.574,228.016,321.779,225.954,320.688L225.954,320.688z M236.297,317.828
	c-2.218,1.717-4.146,6.484-4.146,6.484s5.74,0.004,7.613-1.104s2.208-2.924,1.2-4.547
	C239.955,317.039,238.218,316.498,236.297,317.828z"/>
<text transform="matrix(1 0 0 1 504.5356 253.417)" fill="#FFFFFF" font-family="'MSReferenceSansSerif-Bold'" font-size="115">CONNECTING</text>
<text transform="matrix(1 0 0 1 504.5356 361.1934)" fill="#FFFFFF" font-family="'MSReferenceSansSerif-Bold'" font-size="115">ALL THE DOTS</text>
<text transform="matrix(1 0 0 1 504.5356 424.2715)" fill="#FFFFFF" font-family="'MSReferenceSansSerif-Bold'" font-size="46">MAKE SURE YOU STAY CONNECTED</text>
</svg>
