<svg xmlns="http://www.w3.org/2000/svg" viewBox="0 0 320 640" enable-background="new 0 0 320 640"><path fill="#A18E5C" d="M277.467 122.064s2.95-21.147-20.842-32.369c-26.526-14.386-80.12-44.757-80.12-44.757s-14.353-10.999-33.292-.266c-19.524 11.062-84.992 48.22-84.992 48.22s-15.699 7.992-15.699 28.506v91.378s-1.354 17.051 15.158 27.44l82.015 45.556s1.558 1.2 4.224 2.605c7.506 6.525 15.301 17.295 16.829 34.42 0 0 .544-21.835 18.922-36.414l79.157-44.44s20.328-7.67 18.642-33.005c-.002-48.619-.002-86.874-.002-86.874z"/><path fill="#fff" d="M199.091 177h-80.182c-4.92 0-8.909 3.582-8.909 8s3.989 8 8.909 8h80.182c4.921 0 8.909-3.582 8.909-8s-3.988-8-8.909-8z"/><path fill="#fff" d="M170.909 203h-54.818c-3.364 0-6.091 3.582-6.091 8s2.727 8 6.091 8h54.818c3.364 0 6.091-3.582 6.091-8s-2.727-8-6.091-8z"/><path fill="#fff" d="M171 127c0-.673.029-1.338.071-2h-52.162c-4.92 0-8.909 3.582-8.909 8s3.989 8 8.909 8h55.435c-2.134-4.207-3.344-8.96-3.344-14z"/><path fill="#fff" d="M202 158c-7.444 0-14.274-2.626-19.619-7h-63.472c-4.92 0-8.909 3.582-8.909 8s3.989 8 8.909 8h80.182c4.921 0 8.909-3.582 8.909-8 0-.532-.061-1.052-.171-1.555-1.889.36-3.836.555-5.829.555z"/><circle fill="#fff" cx="202.125" cy="127" r="26"/><circle fill="#A18E5C" cx="202.125" cy="127" r="21"/><g fill="#fff"><path d="M217.115 127l-10.09-2.002c.247.62.387 1.294.387 2.002s-.14 1.383-.387 2.003l10.09-2.003z"/><path d="M202 121.588c.792 0 1.542.174 2.22.479l-2.22-14.025-2.22 14.025c.678-.305 1.428-.479 2.22-.479z"/></g><circle fill="#fff" cx="202.125" cy="127" r="3.169"/><circle fill="#fff" cx="202.126" cy="143" r="1.667"/><circle fill="#fff" cx="185.126" cy="127" r="1.667"/><circle fill="#fff" cx="219.126" cy="127" r="1.667"/></svg>