<svg xmlns="http://www.w3.org/2000/svg" viewBox="0 0 320 320" enable-background="new 0 0 320 320"><path fill="#A18E5C" d="M31.004 54.24c0-8.201 1.974-14.081 5.927-17.644 3.951-3.561 9.597-5.424 16.935-5.591l1.615 7.828c-8.744.913-12.788 5.013-12.13 12.301h7.657v19.88h-20.004v-16.774zm31.684 0c0-8.201 1.975-14.081 5.927-17.644 3.951-3.561 9.596-5.424 16.935-5.591l1.615 7.828c-8.744.913-12.788 5.013-12.13 12.301h7.657v19.88h-20.004v-16.774z"/><path fill="#A18E5C" d="M257.976 266.104c0 8.201-1.974 14.082-5.927 17.645-3.951 3.561-9.597 5.424-16.935 5.591l-1.615-7.828c8.744-.912 12.788-5.013 12.13-12.301h-7.657v-19.88h20.004v16.773zm31.684 0c0 8.201-1.975 14.082-5.928 17.645-3.95 3.561-9.596 5.424-16.935 5.591l-1.615-7.828c8.744-.912 12.788-5.013 12.13-12.301h-7.657v-19.88h20.005v16.773z"/></svg>