<svg xmlns="http://www.w3.org/2000/svg" viewBox="0 0 650 650" enable-background="new 0 0 650 650"><path fill="#292929" d="M539.016 241.017s5.367-39.085-37.912-59.823c-48.253-26.588-145.741-82.717-145.741-82.717s-26.107-20.328-60.562-.493c-35.515 20.446-154.604 89.119-154.604 89.119s-28.557 14.771-28.557 52.684v168.882s-2.462 31.512 27.573 50.714l149.187 84.194s33.826 26.582 68.654 3.446l148.052-84.447s36.978-14.176 33.909-61c.001-89.857.001-160.559.001-160.559z" enable-background="new"/><path fill="#FAFAF6" d="M436.865 350.078c12.828-14.706 20.413-32.869 20.413-52.528 0-49-47.087-88.724-105.172-88.724-58.085 0-105.172 39.724-105.172 88.724 0 49.001 47.087 88.724 105.172 88.724 20.804 0 40.196-5.098 56.521-13.89 5.757 4.395 18.65 11.382 45.66 15.884 0 0-16.799-12.021-17.422-38.19z" enable-background="new"/><path fill="#d63737" d="M235.719 304.801c-26.288 10.674-44.431 33.357-44.431 59.615 0 14.648 5.656 28.179 15.213 39.138-.459 19.511-12.984 28.473-12.984 28.473 20.156-3.359 29.764-8.575 34.047-11.851 12.166 6.552 26.604 10.364 42.107 10.364 29.19 0 54.634-13.471 68.125-33.435-56.097-4.59-100.211-43.914-102.077-92.304z" enable-background="new"/><path fill="#d63737" d="M335.188 273.14h-16.363c-.726 0-1.49.594-1.631 1.386l-2.727 15.44c-.14.791-.694 1.319-1.421 1.319h-3.694c-.792 0-1.227-.528-1.087-1.319l2.727-15.44c.14-.792-.283-1.386-1.074-1.386h-16.364c-.726 0-1.491.594-1.63 1.386l-7.994 45.264c-.128.727.426 1.32 1.152 1.32h16.363c.792 0 1.425-.594 1.553-1.32l2.074-11.744c.14-.792.761-1.32 1.552-1.32h3.695c.726 0 1.095.528.954 1.32l-2.074 11.744c-.128.727.428 1.32 1.153 1.32h16.363c.726 0 1.425-.594 1.553-1.32l7.994-45.264c.14-.793-.348-1.386-1.074-1.386zm23.815 9.435c-5.542 0-11.167 1.584-15.487 4.751-4.852 3.562-7.845 9.304-8.848 14.978-1.014 5.741-.048 11.481 3.546 15.044 3.201 3.168 9.214 4.619 14.624 4.619 6.4 0 10.732-.99 15.468-2.771.562-.197 1.37-.659 1.72-1.518l2.737-6.532c.26-.726-.237-1.649-1.782-1.121-9.428 2.573-18.421 2.309-20.683-1.32-.552-.989-.26-1.518.928-1.518h20.784c2.375 0 3.621-1.451 4.228-4.883 1.002-5.674.036-11.415-3.557-14.978-3.202-3.167-8.267-4.751-13.678-4.751zm2.032 15.77h-8.776c-.594 0-.776-.462-.527-1.121.904-2.508 2.989-4.223 5.893-4.223 2.969 0 4.567 1.781 4.432 4.42-.017.462-.296.924-1.022.924zm58.112-14.78h-13.197c-.726 0-1.412.527-1.618 1.319l-2.879 16.298c-.757 4.288-1.507 6.664-4.41 6.664-1.913 0-2.425-1.584-2.099-3.432l3.449-19.53c.128-.726-.36-1.319-1.087-1.319h-13.13c-.792 0-1.413.527-1.553 1.319l-4.23 23.951c-1.597 9.04 3.906 12.999 10.835 12.999 3.827 0 7.479-1.254 9.789-3.497.155-.132.407-.066.361.198l-.152.857c-.733 4.157-4.705 6.466-9.401 6.532-4.685 0-6.908-.857-9.847-1.781-1.063-.33-1.719.396-1.618 1.319l.611 9.237c.101 2.046 5.011 2.64 12.929 2.64 15.176 0 20.902-10.755 22.953-22.368l5.314-30.088c.129-.724-.36-1.318-1.02-1.318z" enable-background="new"/></svg>