<svg xmlns="http://www.w3.org/2000/svg" viewBox="0 0 27 22"><path fill="#fff" d="M26.441 2.86c-1.682.865-3.123.85-3.123.85s1.842-1.01 2.387-2.996c-2.242 1.282-3.477 1.313-3.477 1.313s-2.435-2.883-6.326-1.233c-4.021 1.842-3.012 6.216-3.012 6.216s-6.423.24-11.293-5.719c-2.374 4.504 1.634 7.271 1.634 7.271s-1.089.129-2.435-.64c.289 4.485 3.909 5.447 4.357 5.415-1.377.384-2.403.16-2.403.16s1.089 3.716 5.062 3.716c-4.005 3.236-8.042 2.307-8.042 2.307s8.009 5.831 17.14-.16c7.657-5.254 6.759-13.647 6.759-13.647s1.636-1.026 2.772-2.853z"/></svg>