<svg xmlns="http://www.w3.org/2000/svg" viewBox="0 0 650 320"><g fill="#fff"><path d="M85.208 133.288l12.83 9.831-6.805 2.857-12.25-9.283-5.42 2.275 5.149 12.265-5.935 2.492-12.457-29.672 12.937-5.432c6.923-2.907 11.581-1.512 13.973 4.186 1.799 4.286 1.125 7.779-2.022 10.481zm-13.971.142l8.308-3.488c2.37-1.042 3.14-2.645 2.309-4.809-.885-1.924-2.519-2.433-4.899-1.527l-8.368 3.513 2.65 6.311z"/><path d="M109.348 138.928l-10.339-30.453 22.38-7.621 1.932 5.688-16.293 5.532 2.207 6.501 12.209-4.145 1.924 5.668-12.209 4.145 2.352 6.928 16.252-5.518 1.931 5.688-22.346 7.587z"/><path d="M147.938 121.634c-3.766-2.176-6.24-5.496-7.424-9.962-1.145-4.372-.625-8.442 1.558-12.209 2.182-3.767 5.472-6.234 9.868-7.399 4.438-1.177 8.613-.804 12.526 1.118l-2.944 5.641c-2.555-1.098-5.201-1.285-7.938-.559-2.789.754-4.808 2.222-6.058 4.402-1.25 2.181-1.517 4.619-.802 7.315.78 2.886 2.252 4.952 4.417 6.198 2.165 1.246 4.644 1.499 7.437.759 2.24-.594 3.844-1.493 4.812-2.696l-1.413-5.33-4.142 1.12-1.54-5.807 10.369-2.749 3.849 14.517c-2.433 3.605-5.875 5.997-10.327 7.177-4.4 1.152-8.483.64-12.248-1.536z"/><path d="M179.877 85.32l6.277-1.323 6.641 31.511-6.277 1.323-6.641-31.511z"/><path d="M219.961 79.008c1.738.442 3.428 1.254 5.069 2.437l-3.546 4.924c-1.688-1.465-3.801-1.99-6.343-1.577-2.541.413-4.067 1.277-4.578 2.592-.511 1.315-.345 2.338.499 3.07.844.732 2.57 1.104 5.181 1.114 2.728-.153 5.307.333 7.736 1.459 2.429 1.127 3.908 3.314 4.436 6.561.414 2.542-.399 4.919-2.437 7.135-2.039 2.215-4.61 3.575-7.716 4.08-2.951.479-5.483.457-7.597-.069-2.115-.525-3.992-1.379-5.633-2.562l3.547-4.924c1.687 1.465 4.248 2.063 7.682 1.794 2.823-.459 4.487-1.345 4.991-2.659.504-1.313.309-2.513-.585-3.6-.894-1.086-2.776-1.541-5.645-1.364-2.587.131-5.043-.267-7.367-1.193s-3.739-2.942-4.244-6.048c-.457-2.809.38-5.26 2.511-7.353 2.13-2.092 4.466-3.346 7.007-3.759 2.95-.481 5.294-.499 7.032-.058z"/><path d="M267.171 72.265l.611 5.976-10.671 1.091 2.663 26.039-6.403.655-2.663-26.039-10.671 1.091-.611-5.976 27.745-2.837z"/><path d="M283.915 103.335l-1.374-32.131 23.621-1.031.256 6.001-17.19.735.293 6.859 12.882-.551.256 5.98-12.882.551.312 7.309 17.148-.733.256 6.001-23.578 1.01z"/><path d="M342.389 88.333l7.812 14.15-7.379-.111-7.502-13.416-5.877-.088-.201 13.3-6.436-.097.484-32.178 14.03.211c7.508.113 11.217 3.258 11.123 9.437-.07 4.648-2.088 7.579-6.054 8.792zm-12.856-5.472l9.01.136c2.588-.004 3.936-1.164 4.043-3.479-.039-2.118-1.332-3.239-3.875-3.363l-9.074-.137-.104 6.843z"/><path d="M415.727 75.702l-.662 5.971-10.662-1.18-2.879 26.015-6.396-.708 2.879-26.016-10.662-1.18.66-5.971 27.722 3.069z"/><path d="M429.367 105.525c-2.49-3.571-3.338-7.604-2.541-12.096.797-4.507 2.979-8.006 6.543-10.498s7.6-3.338 12.107-2.54c4.506.799 8.006 2.98 10.498 6.544 2.49 3.564 3.338 7.6 2.539 12.106-.799 4.507-2.98 8.006-6.545 10.498-3.564 2.492-7.6 3.338-12.105 2.54-4.508-.798-8.006-2.982-10.496-6.554zm11.565.643c2.803.497 5.252-.05 7.35-1.639s3.396-3.792 3.895-6.609c.5-2.816.037-5.332-1.387-7.545s-3.551-3.57-6.381-4.072c-2.803-.497-5.254.05-7.35 1.639-2.098 1.589-3.396 3.793-3.895 6.609-.5 2.817-.037 5.332 1.387 7.545 1.424 2.214 3.551 3.571 6.381 4.072z"/><path d="M468.98 117.748l7.828-31.237 12.027 3.014c9.713 2.434 13.262 8.86 10.652 19.279-2.607 10.406-8.768 14.392-18.479 11.958l-12.028-3.014zm13.588-3.208c5.539 1.374 9.098-1.06 10.676-7.3 1.551-6.247-.441-10.063-5.977-11.451l-5.787-1.45-4.697 18.75 5.785 1.451z"/><path d="M509.068 128.165l22.314-26.521 6.111 2.018 2.117 34.568-6.504-2.125-.287-5.292-13.854-4.575-3.381 4.08-6.516-2.153zm22.842-17.309l-8.479 10.078 9.166 3.028-.687-13.106z"/><path d="M563.002 112.63l6.969 2.91 2.84 12.578 11.098-6.759 6.811 2.844-17.088 10.302-6.199 14.849-5.939-2.479 6.199-14.849-4.691-19.396z"/><path fill-rule="evenodd" clip-rule="evenodd" d="M430.426 188.315s-15.826-3.654-27.071.25c-13.163 4.165-17.198 1.929-17.198 1.929s.588 3.162 4.065 6.598c-13.566.938-30.353-9.025-30.353-9.025s.096 1.986 6.212 10.162c-22.764-.403-38.01-30.188-39.289-33.483-.338-.066-.653-.116-.976-.163-.318.047-.635.097-.973.163-1.281 3.296-16.53 33.08-39.292 33.483 6.12-8.176 6.21-10.162 6.21-10.162s-16.781 9.963-30.349 9.025c3.474-3.436 4.064-6.598 4.064-6.598s-4.036 2.236-17.194-1.929c-11.249-3.904-27.075-.25-27.075-.25s8.692-4.426 19.896-16.321c11.776-13.244 22.328-16.778 25.228-16.829-2.669-2.516-8.192-3.569-8.192-3.569s16.775-6.663 32.193-4.303c-1.583-4.081-8.846-7.577-8.846-7.577s13.796-4.399 39.038 17.336c1.878-.181 3.64-.112 5.291.103 1.655-.215 3.416-.283 5.294-.103 25.243-21.735 39.036-17.336 39.036-17.336s-7.262 3.496-8.848 7.577c15.418-2.359 32.193 4.303 32.193 4.303s-5.526 1.053-8.192 3.569c2.901.051 13.456 3.585 25.231 16.829 11.202 11.896 19.897 16.321 19.897 16.321zm-41.287-14.741c3.827 2.001 10.877 4.571 21.731 7.553-6.771-.126-17.344-3.973-24.275-7.012-6.936-3.044-15.445-4.775-15.445-4.775.192.456-.088 2.815 4.522 9.704-3.327-1.571-9.072-10.128-9.072-10.128s-.895-1.854-3.169-2.704c-2.279-.853-14.977-2.413-16.567-2.387-1.583.035-1.69.293-.896.916.861 1.018 2.067 4.133 7.692 8.363-4.672-1.222-11.227-7.399-11.979-8.688-.946-1.729-2.963-1.198-2.963-1.198s-2.255.207-3.823.02c-2.773-2.025-.703-3.432.2-3.816.902-.379 3.815-.545 3.815-.545s.834.715 4.199-1.667c3.366-2.382 7.842-5.656 12.283-6.251-3.323 1.725-6.8 5.855-8.229 7.523-1.425 1.667 1.295 1.798 1.295 1.798s12.725 1.872 15.146 2.556c2.421.68 3.723.237 4.898-.261 1.176-.497 9.134-3.863 11.546-3.7-1.444.606-4.938 2.939-7.691 4.737-2.759 1.806.204 2.259.445 2.581.242.327 12.502 5.379 16.337 7.381zm-72.598-14.152c.904.385 2.975 1.791.201 3.816-1.569.188-3.828-.02-3.828-.02s-2.015-.531-2.959 1.198c-.753 1.288-7.309 7.466-11.981 8.688 5.624-4.23 6.833-7.346 7.688-8.363.798-.623.693-.881-.894-.916-1.583-.026-14.288 1.534-16.564 2.387-2.277.85-3.17 2.704-3.17 2.704s-5.744 8.557-9.074 10.128c4.618-6.889 4.336-9.248 4.526-9.704 0 0-8.513 1.731-15.444 4.775-6.934 3.039-17.511 6.886-24.275 7.012 10.85-2.981 17.9-5.552 21.732-7.553 3.832-2.002 16.091-7.055 16.333-7.382.242-.322 3.206-.775.451-2.581-2.756-1.798-6.249-4.131-7.696-4.737 2.409-.163 10.368 3.203 11.542 3.7 1.178.498 2.481.94 4.901.261 2.422-.684 15.148-2.556 15.148-2.556s2.719-.131 1.292-1.798c-1.428-1.668-4.904-5.798-8.226-7.523 4.437.595 8.917 3.869 12.277 6.251 3.367 2.382 4.202 1.667 4.202 1.667s2.914.167 3.818.546z"/></g></svg>