<svg xmlns="http://www.w3.org/2000/svg" viewBox="0 0 320 199"><g fill="#fff"><path d="M37.432 103.168l6.534 5.006-3.465 1.455-6.238-4.727-2.76 1.158 2.623 6.246-3.022 1.268-6.345-15.109 6.588-2.767c3.526-1.48 5.898-.77 7.116 2.131.915 2.183.572 3.962-1.031 5.339zm-7.114.072l4.23-1.777c1.207-.529 1.599-1.346 1.176-2.447-.451-.98-1.283-1.24-2.495-.778l-4.261 1.79 1.35 3.212z"/><path d="M49.735 106.035l-5.265-15.507 11.397-3.881.984 2.896-8.297 2.817 1.124 3.311 6.218-2.111.98 2.887-6.218 2.11 1.198 3.529 8.276-2.811.983 2.896-11.38 3.864z"/><path d="M69.387 97.228c-1.918-1.107-3.178-2.799-3.781-5.072-.583-2.227-.318-4.3.793-6.218 1.111-1.919 2.787-3.175 5.025-3.769 2.26-.599 4.386-.409 6.379.57l-1.499 2.872c-1.301-.559-2.649-.654-4.043-.284-1.42.384-2.448 1.131-3.084 2.242-.636 1.11-.772 2.352-.408 3.725.397 1.47 1.147 2.521 2.25 3.156s2.365.763 3.787.386c1.141-.302 1.957-.76 2.45-1.373l-.719-2.714-2.109.57-.784-2.956 5.28-1.4 1.96 7.393c-1.239 1.836-2.992 3.054-5.259 3.654-2.241.587-4.321.326-6.238-.782z"/><path d="M85.651 78.737l3.196-.674 3.381 16.046-3.196.674-3.381-16.046z"/><path d="M106.063 75.523c.885.226 1.746.639 2.582 1.24l-1.806 2.508c-.859-.746-1.936-1.014-3.229-.804-1.294.211-2.071.65-2.332 1.32s-.175 1.19.254 1.563 1.309.562 2.638.567c1.389-.078 2.702.169 3.939.743 1.237.573 1.99 1.688 2.259 3.341.21 1.294-.204 2.505-1.241 3.633-1.038 1.128-2.348 1.82-3.929 2.078-1.503.244-2.792.232-3.869-.035-1.077-.268-2.033-.703-2.869-1.305l1.806-2.508c.859.746 2.163 1.051 3.912.914 1.438-.234 2.285-.686 2.542-1.354.257-.669.157-1.279-.298-1.833-.455-.553-1.414-.784-2.875-.694-1.318.066-2.568-.137-3.751-.608-1.184-.472-1.904-1.498-2.161-3.08-.233-1.43.193-2.679 1.278-3.744s2.274-1.703 3.568-1.914c1.503-.244 2.697-.253 3.582-.028z"/><path d="M130.104 72.088l.312 3.043-5.435.556 1.356 13.26-3.26.333-1.356-13.259-5.435.556-.311-3.043 14.129-1.446z"/><path d="M138.618 87.911l-.7-16.362 12.028-.526.131 3.057-8.754.375.149 3.493 6.56-.28.13 3.045-6.56.281.159 3.722 8.732-.374.131 3.057-12.006.512z"/><path d="M168.396 80.27l3.979 7.206-3.758-.057-3.82-6.831-2.992-.045-.102 6.772-3.278-.049.246-16.386 7.146.107c3.822.058 5.711 1.659 5.664 4.806-.039 2.367-1.066 3.86-3.085 4.477zm-6.547-2.786l4.588.069c1.318-.002 2.006-.593 2.059-1.771-.02-1.079-.678-1.65-1.973-1.713l-4.622-.069-.052 3.484z"/><path d="M205.753 73.838l-.337 3.041-5.429-.602-1.467 13.248-3.258-.36 1.467-13.248-5.43-.601.336-3.041 14.118 1.563z"/><path d="M212.688 89.024c-1.269-1.818-1.7-3.872-1.295-6.159.406-2.295 1.518-4.077 3.332-5.346 1.815-1.27 3.87-1.7 6.165-1.294s4.077 1.518 5.346 3.332c1.27 1.815 1.7 3.87 1.294 6.165s-1.518 4.077-3.332 5.346c-1.815 1.27-3.87 1.7-6.165 1.294s-4.078-1.519-5.345-3.338zm5.888.327c1.427.253 2.675-.025 3.743-.835 1.067-.809 1.729-1.931 1.982-3.365s.019-2.715-.706-3.842c-.726-1.127-1.809-1.818-3.25-2.074-1.427-.252-2.675.026-3.743.836-1.067.809-1.729 1.931-1.982 3.365s-.019 2.715.706 3.842c.726 1.127 1.809 1.818 3.25 2.073z"/><path d="M232.873 95.25l3.985-15.906 6.126 1.534c4.945 1.239 6.753 4.513 5.424 9.818-1.328 5.299-4.465 7.328-9.41 6.089l-6.125-1.535zm6.919-1.634c2.821.7 4.633-.539 5.437-3.717.79-3.181-.225-5.125-3.044-5.831l-2.945-.738-2.394 9.549 2.946.737z"/><path d="M253.286 100.555l11.364-13.505 3.112 1.027 1.078 17.603-3.312-1.082-.146-2.695-7.055-2.33-1.722 2.078-3.319-1.096zm11.633-8.815l-4.318 5.133 4.669 1.541-.351-6.674z"/><path d="M280.762 92.647l3.549 1.482 1.446 6.404 5.651-3.441 3.468 1.448-8.702 5.247-3.157 7.561-3.024-1.262 3.157-7.562-2.388-9.877z"/><path fill-rule="evenodd" clip-rule="evenodd" d="M212.994 133.945s-8.045-1.857-13.762.127c-6.691 2.117-8.742.98-8.742.98s.299 1.607 2.066 3.354c-6.896.477-15.43-4.588-15.43-4.588s.049 1.01 3.158 5.166c-11.572-.205-19.322-15.346-19.973-17.021l-.496-.082-.494.082c-.651 1.676-8.403 16.816-19.974 17.021 3.111-4.156 3.157-5.166 3.157-5.166s-8.531 5.064-15.428 4.588c1.766-1.746 2.066-3.354 2.066-3.354s-2.052 1.137-8.741-.98c-5.718-1.984-13.763-.127-13.763-.127s4.418-2.25 10.114-8.297c5.986-6.732 11.35-8.529 12.824-8.555-1.356-1.279-4.164-1.814-4.164-1.814s8.527-3.387 16.365-2.188c-.804-2.074-4.497-3.852-4.497-3.852s7.013-2.236 19.844 8.812c.955-.092 1.85-.057 2.689.053.842-.109 1.736-.145 2.691-.053 12.832-11.049 19.844-8.812 19.844-8.812s-3.691 1.777-4.498 3.852c7.838-1.199 16.365 2.188 16.365 2.188s-2.809.535-4.164 1.814c1.475.025 6.84 1.822 12.826 8.555 5.697 6.047 10.117 8.297 10.117 8.297zm-20.988-7.494c1.945 1.018 5.529 2.324 11.047 3.84-3.441-.064-8.816-2.02-12.34-3.564-3.525-1.547-7.852-2.428-7.852-2.428.098.232-.045 1.432 2.299 4.934-1.691-.799-4.611-5.148-4.611-5.148s-.455-.943-1.611-1.375c-1.158-.434-7.613-1.227-8.422-1.213-.805.018-.859.148-.455.465.438.518 1.051 2.102 3.91 4.252-2.375-.621-5.707-3.762-6.09-4.416-.48-.879-1.506-.609-1.506-.609s-1.146.105-1.943.01c-1.41-1.029-.357-1.744.102-1.939.459-.193 1.939-.277 1.939-.277s.424.363 2.135-.848 3.986-2.875 6.244-3.178c-1.689.877-3.457 2.977-4.184 3.824-.725.848.658.914.658.914s6.469.951 7.699 1.299c1.23.346 1.893.121 2.49-.133.598-.252 4.643-1.963 5.869-1.881-.734.309-2.51 1.494-3.91 2.408-1.402.918.104 1.148.227 1.312.123.165 6.356 2.734 8.305 3.751zm-36.904-7.193c.459.195 1.512.91.102 1.939-.798.096-1.946-.01-1.946-.01s-1.024-.27-1.504.609c-.383.654-3.715 3.795-6.09 4.416 2.859-2.15 3.474-3.734 3.908-4.252.406-.316.353-.447-.455-.465-.805-.014-7.263.779-8.42 1.213-1.158.432-1.611 1.375-1.611 1.375s-2.92 4.35-4.613 5.148c2.348-3.502 2.204-4.701 2.301-4.934 0 0-4.328.881-7.851 2.428-3.525 1.545-8.901 3.5-12.34 3.564 5.516-1.516 9.1-2.822 11.047-3.84s8.18-3.586 8.303-3.752c.123-.164 1.63-.395.229-1.312-1.401-.914-3.177-2.1-3.912-2.408 1.225-.082 5.271 1.629 5.868 1.881.599.254 1.261.479 2.491.133 1.231-.348 7.701-1.299 7.701-1.299s1.382-.066.656-.914-2.493-2.947-4.182-3.824c2.256.303 4.533 1.967 6.241 3.178 1.711 1.211 2.136.848 2.136.848s1.481.084 1.941.278z"/></g></svg>